{"glyphs":{"0":{"ha":797,"x_min":44,"x_max":751,"o":"m 267 393 q 293 201 267 278 q 371 124 319 124 q 483 249 438 124 q 529 531 529 374 q 503 720 529 643 q 425 797 476 797 q 314 678 361 797 q 267 393 267 558 m 328 -14 q 119 81 194 -14 q 44 342 44 176 q 94 631 44 497 q 242 850 144 765 q 467 935 340 935 q 676 840 600 935 q 751 579 751 744 q 701 292 751 425 q 553 72 651 158 q 328 -14 454 -14 z "},"1":{"ha":797,"x_min":115,"x_max":632,"o":"m 496 129 q 629 135 583 129 q 632 101 632 118 q 572 -3 632 -3 q 519 -2 563 -3 q 404 -1 475 -1 q 258 0 333 0 q 118 -1 158 0 q 115 36 115 26 q 201 135 115 135 l 289 135 q 311 289 293 169 q 340 488 329 408 q 376 786 364 656 q 221 767 243 771 q 219 790 219 774 q 304 913 219 897 q 536 935 501 935 q 580 919 561 935 q 599 865 599 903 q 588 797 599 854 q 561 640 578 739 q 532 451 544 540 l 521 374 q 496 129 500 222 z "},"2":{"ha":797,"x_min":0,"x_max":704,"o":"m 232 682 q 154 715 188 686 q 121 779 121 744 q 208 890 121 846 q 408 933 296 933 q 622 874 540 933 q 704 683 704 815 q 672 520 704 596 q 576 378 640 444 q 456 268 511 313 q 313 163 400 224 q 296 151 301 156 q 382 147 332 147 q 657 188 557 147 q 675 106 675 142 q 667 60 675 79 q 639 31 658 42 q 599 13 619 19 q 542 2 579 6 q 476 -2 504 -1 q 396 -3 447 -3 q 210 -1 321 -3 q 60 0 99 0 q 0 86 0 0 q 7 142 0 114 q 151 256 63 189 q 288 362 239 322 q 390 453 336 401 q 467 556 443 506 q 490 660 490 606 q 459 760 490 724 q 381 797 428 797 q 232 682 293 797 z "},"3":{"ha":797,"x_min":32,"x_max":675,"o":"m 485 506 q 605 424 565 476 q 644 304 644 371 q 524 74 644 163 q 240 -14 404 -14 q 85 18 138 -14 q 32 92 32 50 q 121 175 32 144 q 251 124 157 124 q 383 176 333 124 q 433 293 433 228 q 388 388 433 349 q 263 426 342 426 q 207 494 207 426 q 214 550 207 519 q 389 597 325 550 q 453 706 453 643 q 429 771 453 744 q 365 797 406 797 q 299 774 332 797 q 243 704 265 750 q 165 727 193 704 q 138 783 138 750 q 232 884 138 833 q 435 935 326 935 q 613 882 550 935 q 675 751 675 829 q 485 506 675 589 z "},"4":{"ha":797,"x_min":33,"x_max":751,"o":"m 464 907 q 614 936 497 936 q 694 932 665 936 q 672 803 692 917 q 638 602 651 689 q 613 411 625 515 q 742 433 711 419 q 751 368 751 403 q 714 283 751 304 q 596 264 685 268 q 581 75 581 111 q 586 1 581 33 q 475 -14 538 -14 q 389 5 413 -14 q 365 67 365 24 q 394 263 365 74 q 68 268 147 263 q 33 335 33 269 q 44 408 33 372 q 254 677 110 504 q 464 907 399 850 m 254 406 q 332 401 292 401 q 415 407 382 401 q 431 524 422 468 q 445 625 439 581 q 454 685 451 669 q 390 601 425 650 q 314 492 356 553 q 254 406 272 431 z "},"5":{"ha":797,"x_min":50,"x_max":729,"o":"m 613 768 q 386 776 519 768 l 356 621 q 422 625 392 625 q 616 561 549 625 q 683 376 683 497 q 568 101 683 217 q 268 -14 453 -14 q 50 83 50 -14 q 108 178 50 139 q 240 125 153 125 q 392 181 326 125 q 458 332 458 236 q 408 444 458 399 q 265 490 357 490 q 164 482 208 490 q 156 522 156 493 q 225 922 156 531 q 540 919 271 919 q 721 931 653 919 q 729 871 729 899 q 613 768 729 768 z "},"6":{"ha":797,"x_min":72,"x_max":689,"o":"m 326 -14 q 131 65 190 -14 q 72 275 72 144 q 96 457 72 364 q 167 635 119 550 q 277 788 214 721 q 426 894 340 854 q 607 935 513 935 q 685 875 685 935 q 665 806 685 838 q 600 811 638 811 q 408 719 485 811 q 303 486 331 628 q 497 572 393 572 q 634 513 579 572 q 689 343 689 454 q 585 97 689 208 q 326 -14 482 -14 m 388 436 q 293 371 346 436 q 288 290 288 335 q 372 125 288 125 q 440 182 413 125 q 467 310 467 239 q 445 402 467 368 q 388 436 424 436 z "},"7":{"ha":797,"x_min":63,"x_max":774,"o":"m 543 772 q 201 765 360 765 q 118 846 118 765 q 136 931 118 889 q 310 919 213 919 q 767 922 688 919 q 774 875 774 894 q 743 763 774 833 q 324 83 689 644 q 192 -14 261 -14 q 63 67 129 -14 q 325 401 176 176 q 543 772 474 626 z "},"8":{"ha":797,"x_min":53,"x_max":715,"o":"m 331 -14 q 124 48 194 -14 q 53 201 53 110 q 114 390 53 313 q 268 510 175 467 q 153 697 153 579 q 243 868 153 801 q 464 935 333 935 q 643 888 571 935 q 715 763 715 840 q 540 510 715 597 q 648 418 610 471 q 686 283 686 365 q 593 74 686 163 q 331 -14 500 -14 m 363 124 q 439 173 408 124 q 469 285 469 222 q 445 372 469 339 q 371 440 421 406 q 271 243 271 367 q 295 158 271 193 q 363 124 319 124 m 435 797 q 387 769 408 797 q 365 701 365 742 q 438 581 365 629 q 503 725 503 638 q 483 777 503 757 q 435 797 464 797 z "},"9":{"ha":797,"x_min":103,"x_max":721,"o":"m 464 936 q 721 650 721 936 q 697 474 721 565 q 626 295 674 382 q 516 140 579 208 q 367 28 453 71 q 186 -14 281 -14 q 131 1 146 -14 q 115 46 115 15 q 124 117 115 61 q 175 113 150 113 q 376 207 294 113 q 486 436 457 301 q 293 351 392 351 q 157 413 211 351 q 103 579 103 475 q 206 825 103 714 q 464 936 308 936 m 407 485 q 503 551 450 485 q 507 635 507 593 q 424 800 507 800 q 353 742 381 800 q 326 613 326 685 q 348 519 326 553 q 407 485 369 485 z "}," ":{"ha":264,"x_min":0,"x_max":0,"o":""},"!":{"ha":411,"x_min":63,"x_max":390,"o":"m 171 889 q 168 949 171 932 q 279 964 229 964 q 390 882 390 964 q 350 676 390 851 q 310 388 310 500 q 313 344 310 357 q 214 318 263 318 q 144 337 171 318 q 117 390 117 356 q 131 490 117 399 q 158 698 144 581 q 171 889 171 815 m 165 -14 q 92 15 121 -14 q 63 90 63 44 q 103 189 63 144 q 200 233 143 233 q 273 202 243 233 q 303 125 303 171 q 261 29 303 72 q 165 -14 219 -14 z "},"\"":{"ha":592,"x_min":106,"x_max":622,"o":"m 244 1024 q 328 961 328 1024 q 267 700 328 906 q 171 632 244 632 q 106 643 135 632 q 126 816 124 704 q 132 947 129 928 q 160 1004 136 985 q 244 1024 185 1024 m 539 1024 q 622 961 622 1024 q 561 700 622 906 q 465 632 539 632 q 400 643 429 632 q 421 816 418 704 q 426 947 424 928 q 455 1004 431 985 q 539 1024 479 1024 z "},"#":{"ha":797,"x_min":-12,"x_max":810,"o":"m 299 369 q 450 372 401 369 q 493 539 458 399 q 397 542 451 542 l 347 542 q 299 369 315 440 m 624 643 q 810 657 661 644 q 786 561 807 596 q 707 526 765 526 q 656 531 699 526 q 592 535 614 535 q 543 372 569 471 q 729 386 581 374 q 706 290 726 325 q 626 256 685 256 q 577 260 618 256 q 514 265 536 265 q 472 33 472 75 q 411 18 444 18 q 363 63 363 18 q 367 97 363 75 q 378 140 372 119 q 398 202 385 160 q 418 269 411 244 q 326 271 367 271 l 272 271 q 229 33 229 75 q 168 18 201 18 q 119 63 119 18 q 176 269 119 86 q -10 236 74 264 q -12 271 -12 261 q 18 349 -12 325 q 117 374 49 374 q 156 373 126 374 q 207 372 186 372 l 249 539 q 58 506 140 533 q 56 540 56 531 q 86 619 56 594 q 185 643 117 643 q 224 642 194 643 q 275 642 253 642 q 333 885 322 826 q 383 890 360 890 q 438 842 438 890 q 433 813 438 832 q 422 775 428 794 q 402 715 415 756 q 378 639 389 674 l 518 639 q 578 885 568 839 q 628 890 604 890 q 682 842 682 890 q 678 814 682 832 q 667 777 674 796 q 648 718 661 758 q 624 643 635 678 z "},"$":{"ha":797,"x_min":49,"x_max":711,"o":"m 599 697 q 557 758 588 732 q 481 790 526 785 l 446 551 q 508 531 489 538 q 563 506 526 525 q 618 466 600 486 q 651 411 636 446 q 667 332 667 376 q 589 103 667 194 q 369 -7 511 11 q 363 -106 363 -65 l 332 -110 q 282 -68 282 -110 q 289 -12 282 -62 q 120 31 192 -10 q 49 128 49 72 q 76 188 49 165 q 154 229 103 210 q 206 157 165 188 q 307 124 247 126 l 311 149 q 326 265 319 207 q 340 375 333 324 q 265 403 292 392 q 202 442 239 415 q 148 513 165 469 q 131 617 131 556 q 206 821 131 736 q 415 926 282 906 q 421 980 418 946 q 424 1019 424 1014 q 458 1026 449 1026 q 507 986 507 1026 l 506 981 q 503 961 506 975 q 500 932 501 947 q 646 891 581 928 q 711 793 711 854 q 599 697 711 717 m 369 583 l 396 775 q 324 656 324 738 q 369 583 324 611 m 417 343 l 390 147 q 461 276 461 193 q 417 343 461 317 z "},"%":{"ha":1186,"x_min":88,"x_max":1099,"o":"m 297 565 q 362 614 340 565 q 383 718 383 663 q 332 822 383 822 q 265 773 286 822 q 243 668 243 724 q 297 565 243 565 m 285 463 q 140 514 193 463 q 88 653 88 565 q 158 846 88 768 q 344 924 229 924 q 488 873 436 924 q 540 733 540 822 q 470 540 540 618 q 285 463 400 463 m 856 89 q 920 138 899 89 q 942 242 942 186 q 890 346 942 346 q 823 297 844 346 q 801 192 801 247 q 856 89 801 89 m 843 -14 q 699 38 751 -14 q 646 176 646 89 q 717 369 646 292 q 903 447 788 447 q 1047 397 994 447 q 1099 257 1099 346 q 1028 64 1099 142 q 843 -14 958 -14 m 251 67 q 899 972 801 825 q 972 915 972 957 q 951 864 972 892 q 304 -44 406 107 q 231 17 231 -22 q 251 67 231 39 z "},"&":{"ha":1051,"x_min":49,"x_max":1096,"o":"m 1096 560 q 1040 438 1096 497 q 900 378 983 378 q 863 379 874 378 q 685 75 803 165 q 389 -15 567 -15 q 141 63 233 -15 q 49 249 49 140 q 96 406 49 333 q 243 521 143 479 q 146 683 146 569 q 244 862 146 786 q 483 938 342 938 q 625 903 553 938 q 697 804 697 868 q 667 748 697 772 q 569 718 636 724 q 467 800 542 800 q 388 771 419 800 q 356 693 356 742 q 381 633 356 658 q 472 607 407 607 q 494 608 486 607 q 501 558 501 581 q 438 478 501 490 q 322 408 361 463 q 283 286 283 354 q 326 171 283 219 q 443 122 369 122 q 592 190 536 122 q 669 421 647 257 l 661 421 q 569 390 606 421 q 551 464 551 425 q 575 528 551 504 q 638 553 599 553 q 750 533 671 553 q 851 514 829 514 q 911 558 911 514 q 892 607 911 581 q 1004 650 932 650 q 1073 625 1050 650 q 1096 560 1096 600 z "},"'":{"ha":297,"x_min":106,"x_max":328,"o":"m 244 1024 q 328 961 328 1024 q 267 700 328 906 q 171 632 244 632 q 106 643 135 632 q 126 816 124 704 q 132 947 129 928 q 160 1004 136 985 q 244 1024 185 1024 z "},"(":{"ha":476,"x_min":103,"x_max":521,"o":"m 103 247 q 147 526 103 382 q 253 775 192 671 q 376 947 314 879 q 474 1015 438 1015 q 521 983 499 1015 q 341 602 404 835 q 278 169 278 369 q 357 -250 278 -108 q 303 -282 329 -282 q 240 -238 275 -282 q 175 -124 206 -194 q 124 47 144 -54 q 103 247 103 147 z "},")":{"ha":476,"x_min":-44,"x_max":372,"o":"m 372 486 q 327 203 372 349 q 220 -46 282 57 q 97 -215 158 -149 q 1 -282 36 -282 q -44 -250 -25 -282 q 135 131 72 -97 q 197 567 197 358 q 118 983 197 842 q 172 1015 146 1015 q 235 972 200 1015 q 300 858 269 928 q 351 687 331 788 q 372 486 372 586 z "},"*":{"ha":644,"x_min":124,"x_max":619,"o":"m 471 976 q 442 863 471 944 q 571 953 553 936 q 619 867 619 911 q 440 761 619 804 q 568 635 510 683 q 520 588 550 607 q 460 568 490 568 q 403 599 426 568 q 354 699 381 631 q 243 544 338 675 q 178 581 204 558 q 153 628 153 603 q 289 767 157 679 q 124 824 193 803 q 162 894 135 865 q 225 922 189 922 q 324 867 279 922 q 325 913 324 881 q 326 965 326 946 q 324 1019 326 983 q 393 1032 368 1032 q 471 976 471 1032 z "},"+":{"ha":797,"x_min":49,"x_max":750,"o":"m 456 406 q 744 421 601 406 q 750 363 750 404 q 730 303 750 328 q 678 279 710 279 q 574 286 644 279 q 454 293 503 293 q 469 13 454 183 q 410 7 440 7 q 351 25 376 7 q 326 78 326 43 q 332 147 326 89 q 340 294 338 204 q 54 279 276 294 q 49 338 49 308 q 66 395 49 369 q 121 421 83 421 q 195 415 132 421 q 343 407 258 410 q 326 688 343 550 q 386 693 344 693 q 445 674 421 693 q 469 622 469 654 q 463 522 469 589 q 456 406 456 456 z "},",":{"ha":344,"x_min":-22,"x_max":269,"o":"m 40 17 q 32 60 32 38 q 70 150 32 111 q 167 189 108 189 q 244 155 218 189 q 269 65 269 121 q 199 -131 269 -35 q 33 -226 129 -226 q -22 -181 -22 -226 q -15 -143 -22 -164 l -10 -143 q 59 -110 28 -143 q 90 -40 90 -76 q 40 17 90 6 z "},"-":{"ha":382,"x_min":35,"x_max":375,"o":"m 375 404 q 346 315 375 347 q 261 282 317 282 q 211 287 249 282 q 151 292 174 292 q 38 269 103 292 q 35 307 35 294 q 150 440 35 440 q 195 436 158 440 q 254 432 232 432 l 264 432 q 369 453 319 432 q 375 404 375 425 z "},".":{"ha":354,"x_min":31,"x_max":288,"o":"m 143 -14 q 60 19 89 -14 q 31 99 31 51 q 70 201 31 156 q 175 246 110 246 q 258 210 228 246 q 288 126 288 175 q 249 28 288 71 q 143 -14 211 -14 z "},"/":{"ha":353,"x_min":-21,"x_max":407,"o":"m 343 1031 q 407 989 407 1031 q 244 412 407 961 q 82 -162 82 -137 q 35 -169 51 -169 q -21 -124 -21 -169 q 136 431 -21 -106 q 301 1024 293 967 l 343 1031 z "},":":{"ha":374,"x_min":31,"x_max":340,"o":"m 143 -14 q 60 19 89 -14 q 31 99 31 51 q 70 201 31 156 q 175 246 110 246 q 258 210 228 246 q 288 126 288 175 q 249 28 288 71 q 143 -14 211 -14 m 196 414 q 113 447 142 414 q 83 526 83 479 q 123 628 83 583 q 228 674 163 674 q 310 638 281 674 q 340 554 340 603 q 302 456 340 499 q 196 414 264 414 z "},";":{"ha":414,"x_min":-22,"x_max":361,"o":"m 217 414 q 133 447 163 414 q 104 526 104 479 q 144 628 104 583 q 249 674 183 674 q 331 638 301 674 q 361 554 361 603 q 323 456 361 499 q 217 414 285 414 m 40 17 q 32 60 32 38 q 70 150 32 111 q 167 189 108 189 q 244 155 218 189 q 269 65 269 121 q 199 -131 269 -35 q 33 -226 129 -226 q -22 -181 -22 -226 q -15 -143 -22 -164 l -10 -143 q 59 -110 28 -143 q 90 -40 90 -76 q 40 17 90 6 z "},"<":{"ha":797,"x_min":124,"x_max":586,"o":"m 275 353 q 358 276 301 326 q 487 163 415 225 q 583 78 558 100 q 541 29 568 49 q 486 10 514 10 q 436 32 460 10 l 124 353 l 439 653 q 489 675 465 675 q 546 654 518 675 q 586 607 574 633 q 477 516 551 576 q 342 407 403 456 q 275 353 281 358 z "},"=":{"ha":797,"x_min":103,"x_max":714,"o":"m 714 501 q 694 442 714 467 q 643 418 675 418 q 535 426 619 418 q 408 433 450 433 q 108 418 251 433 q 103 476 103 447 q 120 534 103 508 q 174 560 138 560 q 268 553 179 560 q 422 546 357 546 q 707 560 611 546 q 714 501 714 532 m 714 229 q 694 170 714 194 q 643 146 675 146 q 535 153 619 146 q 408 161 450 161 q 108 146 251 161 q 103 204 103 175 q 120 262 103 236 q 174 288 138 288 q 268 281 179 288 q 422 274 357 274 q 707 288 611 274 q 714 229 714 260 z "},">":{"ha":797,"x_min":164,"x_max":631,"o":"m 489 353 q 378 460 488 354 q 229 607 268 565 q 274 654 246 633 q 329 675 301 675 q 374 653 351 675 l 631 353 l 294 32 q 244 10 271 10 q 197 29 219 10 q 164 78 174 49 q 322 209 190 100 q 489 353 453 318 z "},"?":{"ha":565,"x_min":75,"x_max":569,"o":"m 339 347 q 238 318 279 318 q 135 392 135 318 q 158 476 135 433 q 216 553 182 518 q 285 624 250 589 q 343 701 319 660 q 367 785 367 743 q 301 844 367 844 q 235 816 268 844 q 188 740 201 788 q 75 821 75 754 q 152 926 75 886 q 331 965 229 965 q 496 926 422 965 q 569 800 569 886 q 545 691 569 740 q 487 607 521 642 q 418 540 453 572 q 359 469 383 508 q 335 386 335 429 q 339 347 335 368 m 192 -14 q 118 15 147 -14 q 89 90 89 44 q 129 189 89 144 q 226 233 169 233 q 299 202 269 233 q 329 125 329 171 q 288 29 329 72 q 192 -14 246 -14 z "},"@":{"ha":1176,"x_min":111,"x_max":1089,"o":"m 622 283 q 652 390 632 315 q 675 474 672 465 q 619 492 649 492 q 556 450 583 492 q 515 360 528 408 q 503 274 503 313 q 539 207 503 207 q 622 283 581 207 m 449 75 q 365 113 396 75 q 335 224 335 150 q 372 401 335 313 q 484 552 410 489 q 650 615 558 615 q 865 551 779 615 q 774 208 774 307 q 799 163 774 163 q 887 269 839 163 q 935 492 935 375 q 701 714 935 714 q 476 635 583 714 q 308 438 369 557 q 247 199 247 318 q 322 17 247 74 q 503 -40 396 -40 q 637 -17 576 -40 q 714 42 697 7 q 786 -31 786 14 q 709 -122 786 -86 q 524 -158 632 -158 q 378 -139 449 -158 q 247 -80 308 -119 q 149 29 186 -40 q 111 189 111 99 q 194 487 111 342 q 424 726 278 632 q 735 819 571 819 q 995 736 901 819 q 1089 518 1089 653 q 1047 328 1089 424 q 922 164 1006 232 q 735 96 839 96 q 621 203 635 96 q 449 75 542 75 z "},"A":{"ha":824,"x_min":-14,"x_max":801,"o":"m 563 42 q 519 265 544 117 q 403 261 463 261 q 285 265 344 261 q 169 -18 182 18 q -14 69 -14 -14 q 4 128 -14 90 q 76 272 22 167 q 181 485 131 378 q 371 931 342 829 q 485 939 440 939 q 617 849 600 939 q 704 407 675 531 q 801 19 768 128 q 653 -14 718 -14 q 563 42 575 -14 m 465 763 q 338 399 413 589 q 429 396 382 396 q 501 399 482 396 q 465 763 479 582 z "},"B":{"ha":786,"x_min":64,"x_max":753,"o":"m 64 78 q 142 538 103 232 q 175 917 175 794 q 418 935 289 935 q 753 732 753 935 q 708 583 753 644 q 592 503 663 522 q 694 424 658 468 q 731 315 731 381 q 626 76 731 167 q 375 -14 522 -14 q 64 78 161 -14 m 389 126 q 481 172 443 126 q 519 293 519 218 q 392 432 519 432 q 342 428 369 432 q 293 154 321 278 q 389 126 326 126 m 385 786 q 360 558 372 653 q 400 556 385 556 q 543 693 543 556 q 514 768 543 742 q 439 794 485 794 q 385 786 411 794 z "},"C":{"ha":789,"x_min":61,"x_max":810,"o":"m 633 236 q 736 142 736 199 q 646 35 736 83 q 432 -14 556 -14 q 160 90 260 -14 q 61 367 61 193 q 109 625 61 511 q 233 804 157 739 q 395 902 310 869 q 567 935 481 935 q 740 890 671 935 q 810 771 810 846 q 774 705 810 731 q 679 672 738 679 q 628 764 667 733 q 542 794 590 794 q 363 676 431 794 q 294 399 294 557 q 340 202 294 278 q 479 126 386 126 q 633 236 571 126 z "},"D":{"ha":929,"x_min":64,"x_max":906,"o":"m 388 792 q 299 161 360 454 q 426 126 349 126 q 547 166 494 126 q 626 269 599 206 q 665 398 653 332 q 678 531 678 464 q 617 728 678 663 q 444 794 557 794 q 388 792 424 794 m 64 74 q 137 497 104 256 q 174 918 169 738 q 414 935 265 935 q 906 561 906 935 q 869 348 906 450 q 767 165 833 246 q 597 35 701 83 q 367 -14 493 -14 q 64 74 163 -14 z "},"E":{"ha":724,"x_min":75,"x_max":744,"o":"m 718 750 q 497 779 654 779 q 383 775 453 779 q 358 564 381 728 q 588 569 543 564 q 590 521 590 542 q 529 424 590 431 q 338 421 496 421 q 310 140 310 194 q 399 138 349 138 q 549 147 472 138 q 650 168 626 156 q 661 90 661 115 q 613 10 661 24 q 393 -4 564 -4 q 136 -1 181 -4 q 89 11 103 0 q 75 47 75 22 q 122 425 75 86 q 168 876 168 764 q 167 911 168 901 q 494 924 331 924 q 733 897 707 924 q 744 858 744 886 q 718 750 744 803 z "},"F":{"ha":690,"x_min":75,"x_max":751,"o":"m 144 607 q 168 876 168 789 q 167 911 168 901 q 501 924 331 924 q 740 897 714 924 q 751 858 751 886 q 725 750 751 803 q 504 779 661 779 q 383 775 453 779 q 358 564 381 728 q 588 569 543 564 q 590 521 590 542 q 529 424 590 431 q 338 421 496 421 l 319 276 q 303 93 303 157 q 308 11 303 46 q 182 -4 263 -4 q 99 17 124 -4 q 75 82 75 38 q 82 140 75 90 q 107 322 89 189 q 144 607 125 454 z "},"G":{"ha":833,"x_min":61,"x_max":810,"o":"m 568 410 q 669 422 618 422 q 786 351 786 422 q 778 310 786 344 q 758 219 769 276 q 739 108 746 161 q 640 21 728 56 q 431 -14 551 -14 q 160 90 258 -14 q 61 367 61 193 q 206 778 61 621 q 576 935 350 935 q 743 889 676 935 q 810 772 810 843 q 774 706 810 732 q 679 672 738 679 q 629 764 667 733 q 544 794 592 794 q 365 681 436 794 q 294 407 294 567 q 333 204 294 282 q 449 126 372 126 q 550 171 510 126 q 568 410 560 289 z "},"H":{"ha":928,"x_min":75,"x_max":906,"o":"m 792 925 q 906 851 906 925 q 899 807 906 844 q 881 696 893 769 q 860 544 869 622 l 825 276 q 808 93 808 157 q 814 11 808 46 q 688 -4 768 -4 q 605 17 629 -4 q 581 82 581 38 q 585 122 581 90 q 601 247 589 154 q 626 429 614 339 q 568 428 607 429 q 508 428 529 428 q 339 431 453 428 l 319 276 q 303 93 303 157 q 308 11 303 46 q 182 -4 263 -4 q 99 17 124 -4 q 75 82 75 38 q 82 140 75 90 q 107 322 89 189 q 144 607 125 454 q 175 917 171 819 q 286 925 218 925 q 400 851 400 925 q 394 810 400 844 q 376 708 388 776 q 357 568 365 639 q 522 567 411 567 q 644 568 603 567 l 650 607 q 681 917 676 819 q 792 925 724 925 z "},"I":{"ha":422,"x_min":75,"x_max":400,"o":"m 286 925 q 400 851 400 925 q 394 807 400 844 q 376 696 388 769 q 354 544 364 622 l 319 276 q 303 93 303 157 q 308 11 303 46 q 182 -4 263 -4 q 99 17 124 -4 q 75 82 75 38 q 82 140 75 90 q 107 322 89 189 q 144 607 125 454 q 175 917 171 819 q 286 925 218 925 z "},"J":{"ha":525,"x_min":0,"x_max":503,"o":"m 1 -22 q 143 40 107 -14 q 197 228 179 93 l 249 613 q 278 917 267 744 q 389 925 325 925 q 503 851 503 925 q 497 804 503 843 q 478 694 490 765 q 458 565 467 624 l 401 169 q 288 -72 379 22 q 82 -165 197 -165 q 0 -62 0 -165 q 1 -22 0 -36 z "},"K":{"ha":801,"x_min":75,"x_max":801,"o":"m 286 925 q 400 851 400 925 q 394 810 400 844 q 376 710 388 776 q 357 574 365 643 q 573 775 508 694 q 661 928 638 856 q 796 842 796 906 q 738 726 796 786 q 507 526 681 665 q 692 175 572 383 q 722 142 706 149 q 771 136 739 136 q 797 140 783 136 q 801 97 801 118 q 679 -14 801 -14 q 600 3 632 -14 q 535 65 568 19 q 440 223 493 122 q 356 414 388 324 l 335 400 l 319 276 q 303 93 303 157 q 308 11 303 46 q 182 -4 263 -4 q 99 17 124 -4 q 75 82 75 38 q 82 140 75 90 q 107 322 89 189 q 144 607 125 454 q 175 917 171 819 q 286 925 218 925 z "},"L":{"ha":631,"x_min":75,"x_max":631,"o":"m 149 631 q 175 917 165 760 q 282 925 215 925 q 400 853 400 925 q 392 803 400 844 q 373 693 385 763 q 353 567 361 624 q 341 483 347 531 q 331 412 335 436 q 323 355 328 388 q 316 306 318 322 q 311 268 314 290 q 307 235 308 246 q 304 208 306 224 q 303 183 303 193 q 302 163 303 174 q 301 140 301 151 q 368 139 321 139 q 516 148 440 139 q 615 169 592 157 q 631 88 631 129 q 624 50 631 65 q 600 25 617 35 q 567 9 583 15 q 521 1 551 3 q 468 -2 490 -1 q 406 -3 446 -3 q 147 1 210 -3 q 75 76 75 8 q 149 631 75 132 z "},"M":{"ha":1153,"x_min":75,"x_max":1131,"o":"m 1069 606 l 1024 282 q 1004 82 1004 154 q 1010 11 1004 46 q 878 -4 960 -4 q 799 18 822 -4 q 776 85 776 40 q 879 643 776 135 q 639 4 708 257 q 557 -3 593 -3 q 433 64 449 -3 q 332 643 403 201 q 288 82 288 203 q 293 7 288 54 q 175 -4 244 -4 q 75 76 75 -4 q 81 125 75 89 q 96 222 86 161 q 111 321 106 283 l 161 671 q 175 847 175 771 q 171 915 175 883 q 308 926 238 926 q 412 899 382 926 q 461 796 442 871 q 496 642 479 726 q 522 504 513 558 q 547 344 531 450 q 571 197 564 239 q 836 846 690 561 q 1003 931 879 931 q 1131 915 1060 931 q 1069 606 1097 825 z "},"N":{"ha":900,"x_min":75,"x_max":878,"o":"m 769 7 q 683 -4 729 -4 q 556 58 582 -4 q 451 327 521 136 q 344 606 382 518 q 289 88 289 185 q 294 13 289 60 q 189 -4 249 -4 q 100 16 125 -4 q 75 79 75 36 q 81 133 75 92 q 97 237 88 175 q 111 338 106 299 q 138 542 121 421 q 160 724 154 664 q 167 836 167 783 q 161 910 167 881 q 268 926 214 926 q 406 858 364 926 q 438 797 419 836 q 480 703 457 758 q 522 601 503 647 q 569 483 540 556 q 613 375 597 411 l 636 596 q 668 917 663 818 q 761 925 711 925 q 878 843 878 925 q 869 788 878 833 q 849 672 861 742 q 831 544 838 601 q 806 358 824 488 q 781 152 789 228 q 769 7 774 76 z "},"O":{"ha":933,"x_min":61,"x_max":910,"o":"m 511 794 q 355 682 415 794 q 294 410 294 569 q 334 207 294 288 q 457 126 374 126 q 616 243 557 126 q 675 519 675 360 q 635 716 675 638 q 511 794 596 794 m 418 -14 q 156 88 250 -14 q 61 365 61 190 q 197 772 61 608 q 549 935 332 935 q 814 835 718 935 q 910 558 910 735 q 774 153 910 319 q 418 -14 638 -14 z "},"P":{"ha":764,"x_min":75,"x_max":750,"o":"m 329 354 q 303 93 303 139 q 308 11 303 46 q 182 -4 263 -4 q 99 17 124 -4 q 75 82 75 38 q 83 140 75 90 q 108 321 90 190 q 144 607 125 451 q 169 918 169 822 q 397 935 279 935 q 528 923 469 935 q 640 883 588 911 q 721 803 692 856 q 750 678 750 751 q 660 409 750 508 q 458 310 571 310 q 329 354 381 310 m 435 796 q 381 790 410 796 q 357 567 367 636 l 343 475 q 415 450 383 450 q 503 509 469 450 q 536 663 536 568 q 510 767 536 738 q 435 796 483 796 z "},"Q":{"ha":933,"x_min":61,"x_max":1053,"o":"m 910 558 q 796 181 910 340 q 492 -8 682 21 q 597 -97 524 -68 q 758 -126 669 -126 q 963 -3 899 -126 q 1053 -112 1053 -46 q 1008 -211 1053 -172 q 911 -262 964 -250 q 801 -275 858 -275 q 350 -8 444 -275 q 137 110 213 11 q 61 365 61 208 q 197 772 61 608 q 549 936 332 936 q 814 835 718 936 q 910 558 910 735 m 511 794 q 355 682 415 794 q 294 410 294 569 q 334 207 294 288 q 457 126 374 126 q 616 243 557 126 q 675 519 675 360 q 635 716 675 638 q 511 794 596 794 z "},"R":{"ha":814,"x_min":75,"x_max":789,"o":"m 682 171 q 708 144 694 151 q 750 136 721 136 q 785 140 769 136 q 789 90 789 115 q 754 12 789 38 q 667 -14 719 -14 q 544 24 582 -14 q 472 160 507 63 q 403 367 438 256 q 392 406 392 379 q 410 479 392 443 q 426 478 415 478 q 474 497 454 478 q 504 547 494 517 q 518 608 514 578 q 522 667 522 638 q 500 771 522 744 q 428 797 478 797 q 381 792 399 797 q 356 558 374 703 l 319 276 q 303 85 303 136 q 308 11 303 40 q 182 -4 263 -4 q 75 75 75 -4 q 80 128 75 90 q 94 225 85 165 q 107 321 103 285 l 143 599 q 168 918 168 783 q 397 935 278 935 q 671 861 585 935 q 757 676 757 788 q 709 494 757 572 q 589 400 661 417 q 682 171 640 238 z "},"S":{"ha":722,"x_min":32,"x_max":722,"o":"m 600 681 q 546 758 588 729 q 458 786 504 786 q 366 751 404 786 q 328 653 328 717 q 363 590 328 614 q 449 549 399 565 q 551 513 500 533 q 638 444 603 492 q 674 324 674 396 q 572 75 674 164 q 296 -14 469 -14 q 113 28 193 -14 q 32 131 32 71 q 136 239 32 206 q 206 159 157 189 q 307 129 254 129 q 406 166 365 129 q 447 275 447 203 q 429 325 447 304 q 381 357 411 346 q 316 379 351 368 q 246 407 281 390 q 181 447 211 424 q 133 515 151 471 q 115 619 115 560 q 219 849 115 767 q 485 932 324 932 q 647 894 571 932 q 722 792 722 857 q 693 721 722 751 q 600 681 664 690 z "},"T":{"ha":660,"x_min":57,"x_max":751,"o":"m 60 775 q 57 822 57 800 q 126 917 57 914 q 261 918 158 918 l 510 918 q 747 922 703 918 q 751 869 751 872 q 683 782 751 783 q 503 781 643 781 q 478 606 494 724 q 453 431 461 488 q 436 297 446 375 q 422 171 426 219 q 418 90 418 122 q 424 11 418 46 q 299 -4 378 -4 q 215 17 240 -4 q 190 82 190 38 q 206 202 190 97 q 243 475 221 307 q 279 778 265 643 q 60 775 119 778 z "},"U":{"ha":922,"x_min":99,"x_max":900,"o":"m 614 381 q 675 917 669 800 q 786 925 718 925 q 900 851 900 925 q 894 807 900 844 q 876 696 888 769 q 854 544 864 622 l 821 276 q 804 93 804 157 q 810 11 804 46 q 682 -4 760 -4 q 596 19 617 -4 q 575 90 575 42 q 577 107 575 94 q 582 142 579 119 q 588 183 585 164 q 449 38 528 89 q 293 -14 369 -14 q 149 53 200 -14 q 99 218 99 119 q 133 513 99 251 q 175 915 168 774 q 286 925 218 925 q 400 851 400 925 q 394 814 400 847 q 378 713 389 781 q 360 585 368 646 q 318 268 318 311 q 400 142 318 142 q 517 210 453 142 q 614 381 581 278 z "},"V":{"ha":864,"x_min":100,"x_max":878,"o":"m 146 724 q 108 903 146 825 q 242 936 158 936 q 378 804 378 936 q 349 563 378 739 q 321 306 321 388 q 346 122 321 172 q 476 203 418 132 q 567 373 535 274 q 617 573 600 472 q 635 760 635 674 q 611 907 635 846 q 744 936 665 936 q 878 825 878 936 q 857 648 878 750 q 789 429 836 546 q 676 215 742 313 q 511 51 611 117 q 294 -14 411 -14 q 211 1 253 -14 q 100 265 100 93 q 123 482 100 354 q 146 724 146 610 z "},"W":{"ha":1338,"x_min":100,"x_max":1351,"o":"m 146 724 q 108 903 146 825 q 242 936 158 936 q 378 804 378 936 q 349 563 378 739 q 321 306 321 388 q 346 122 321 172 q 470 203 415 132 q 557 373 525 274 q 605 573 589 472 q 621 760 621 674 q 597 907 621 846 q 731 936 651 936 q 864 825 864 936 q 789 457 864 661 q 786 389 786 413 q 833 122 786 224 q 958 203 903 132 q 1044 373 1013 274 q 1092 573 1076 472 q 1108 760 1108 674 q 1085 907 1108 846 q 1218 936 1139 936 q 1351 825 1351 936 q 1331 648 1351 750 q 1265 429 1311 546 q 1156 215 1219 313 q 993 51 1092 117 q 781 -14 894 -14 q 699 1 740 -14 q 615 147 638 39 q 293 -14 472 -14 q 211 1 253 -14 q 100 265 100 93 q 123 482 100 354 q 146 724 146 610 z "},"X":{"ha":786,"x_min":8,"x_max":807,"o":"m 785 106 q 615 -14 697 -14 q 583 -8 599 -14 q 552 13 567 -1 q 525 40 538 26 q 499 80 513 54 q 477 124 486 106 q 455 177 468 143 q 434 232 442 211 q 412 292 426 253 q 390 351 397 331 q 267 167 329 278 q 186 -14 206 57 q 55 24 101 1 q 8 92 8 47 q 28 153 8 117 q 95 240 49 189 q 169 321 142 292 q 262 413 197 350 q 333 482 326 475 q 218 695 267 624 q 97 817 169 767 q 265 935 189 935 q 368 854 326 935 q 463 604 411 768 q 566 788 519 692 q 622 936 613 883 q 713 915 679 925 q 777 883 747 906 q 807 828 807 860 q 797 788 807 811 q 766 735 788 765 q 726 682 744 706 q 674 622 707 658 q 624 567 640 585 q 572 513 607 549 q 533 472 538 476 q 642 253 583 347 q 785 106 700 160 z "},"Y":{"ha":707,"x_min":63,"x_max":785,"o":"m 261 392 q 63 846 140 772 q 142 910 110 892 q 214 928 175 928 q 272 915 249 928 q 308 863 294 901 q 419 540 368 707 q 532 751 469 618 q 600 933 594 885 q 785 846 785 933 q 478 392 785 775 l 464 276 q 447 93 447 133 q 453 11 447 46 q 326 -4 407 -4 q 244 17 268 -4 q 219 82 219 38 q 224 120 219 89 q 239 231 228 151 q 261 392 250 311 z "},"Z":{"ha":814,"x_min":50,"x_max":811,"o":"m 214 926 q 425 908 261 926 q 668 889 589 889 q 779 907 742 889 q 811 819 811 875 q 783 738 811 769 l 425 328 q 304 171 353 243 q 336 172 314 172 q 480 154 382 172 q 621 136 578 136 q 743 158 700 136 q 764 78 764 111 q 726 7 764 28 q 590 -14 689 -14 q 419 3 547 -14 q 217 21 292 21 q 88 4 140 21 q 50 85 50 42 q 72 158 50 117 q 539 743 147 293 q 386 759 490 743 q 228 775 282 775 q 121 749 174 775 q 101 835 101 797 q 214 926 101 926 z "},"[":{"ha":572,"x_min":107,"x_max":603,"o":"m 431 889 l 293 -151 q 397 -149 343 -149 q 449 -196 449 -149 q 435 -264 449 -222 l 107 -264 l 274 1000 l 601 1000 q 603 971 603 990 q 535 886 603 886 q 431 889 478 886 z "},"\\":{"ha":375,"x_min":44,"x_max":322,"o":"m 150 297 q 44 976 44 947 q 117 1031 44 1031 q 158 1024 140 1031 q 233 458 175 833 q 315 -71 285 122 q 322 -106 321 -100 q 322 -114 322 -112 q 257 -169 322 -169 q 208 -162 239 -169 q 150 297 196 -12 z "},"]":{"ha":549,"x_min":-31,"x_max":465,"o":"m 142 -153 l 279 888 q 175 885 229 885 q 125 931 125 885 q 138 1000 125 958 l 465 1000 l 299 -264 l -29 -264 q -31 -236 -31 -254 q 38 -150 -31 -150 q 142 -153 94 -150 z "},"^":{"ha":746,"x_min":26,"x_max":719,"o":"m 375 754 q 329 706 365 744 q 270 643 293 667 q 214 589 247 619 q 154 543 181 558 q 108 528 128 528 q 26 574 72 528 q 183 752 65 632 q 374 938 300 872 q 565 751 449 869 q 719 574 681 632 q 639 528 674 528 q 609 537 626 528 q 570 563 592 546 q 528 598 549 581 q 483 641 508 615 q 442 683 458 667 q 403 724 425 700 q 375 754 381 747 z "},"_":{"ha":743,"x_min":0,"x_max":743,"o":"m 743 -153 q 729 -194 743 -178 q 693 -211 715 -211 q 597 -206 672 -211 q 483 -200 522 -200 l 285 -200 q 4 -211 126 -200 q 0 -169 0 -190 q 13 -129 0 -147 q 50 -111 25 -111 q 138 -116 54 -111 q 282 -121 221 -121 l 479 -121 q 739 -111 656 -121 q 743 -153 743 -124 z "},"`":{"ha":318,"x_min":-67,"x_max":242,"o":"m 14 1049 q 98 958 39 1006 q 199 874 157 911 q 242 804 242 836 q 231 763 242 779 q 193 726 221 747 q 81 806 151 763 q -28 879 10 849 q -67 943 -67 910 q 14 1049 -67 1008 z "},"a":{"ha":742,"x_min":36,"x_max":683,"o":"m 431 263 l 465 497 q 381 547 424 547 q 289 463 322 547 q 256 272 256 378 q 271 156 256 203 q 315 110 286 110 q 375 152 342 110 q 431 263 408 194 m 421 144 q 326 27 382 68 q 211 -14 271 -14 q 85 49 133 -14 q 36 233 36 113 q 76 439 36 342 q 203 603 117 536 q 407 671 290 671 q 683 579 549 671 q 621 172 621 285 q 665 92 621 119 q 526 -14 629 -14 q 444 17 469 -14 q 419 110 419 47 q 421 144 419 132 z "},"b":{"ha":736,"x_min":53,"x_max":701,"o":"m 310 397 q 274 153 304 361 q 358 110 315 110 q 446 181 410 110 q 482 376 482 253 q 463 495 482 444 q 408 546 443 546 q 358 506 386 546 q 310 397 331 465 m 53 64 q 121 507 79 215 q 163 846 163 799 q 119 915 163 908 q 171 999 129 968 q 268 1031 213 1031 q 376 910 376 1031 q 332 554 376 833 q 417 641 367 610 q 517 672 468 672 q 649 603 597 672 q 701 411 701 535 q 658 207 701 303 q 527 49 615 111 q 324 -14 439 -14 q 53 64 185 -14 z "},"c":{"ha":635,"x_min":35,"x_max":621,"o":"m 478 436 q 448 517 474 490 q 394 543 422 543 q 292 467 331 543 q 253 288 253 392 q 284 155 253 199 q 364 111 315 111 q 425 135 393 111 q 478 199 457 160 q 542 162 522 182 q 563 108 563 142 q 506 22 563 57 q 343 -14 450 -14 q 120 53 206 -14 q 35 256 35 119 q 70 439 35 357 q 163 571 106 521 q 287 647 219 621 q 424 674 354 674 q 506 663 464 674 q 585 622 549 651 q 621 549 621 592 q 580 474 621 507 q 478 436 539 442 z "},"d":{"ha":736,"x_min":35,"x_max":722,"o":"m 432 263 l 465 497 q 375 547 424 547 q 290 472 325 547 q 254 279 254 396 q 315 110 254 110 q 375 153 340 110 q 432 263 410 196 m 481 604 q 499 746 490 660 q 508 847 508 832 q 465 915 508 907 q 515 997 471 964 q 615 1031 558 1031 q 722 907 722 1031 q 678 532 722 858 q 633 175 633 206 q 676 93 633 122 q 536 -14 640 -14 q 418 114 418 -14 q 419 144 418 135 q 325 27 381 68 q 210 -14 269 -14 q 83 49 132 -14 q 35 233 35 113 q 121 543 35 414 q 333 672 207 672 q 481 604 403 672 z "},"e":{"ha":649,"x_min":35,"x_max":621,"o":"m 281 336 q 368 383 336 336 q 400 490 400 429 q 386 532 400 515 q 354 549 372 549 q 294 491 321 549 q 260 338 267 433 q 281 336 267 336 m 488 186 q 540 147 518 171 q 561 100 561 124 q 490 19 561 51 q 325 -14 418 -14 q 120 45 206 -14 q 35 228 35 104 q 147 538 35 403 q 432 674 258 674 q 566 629 511 674 q 621 507 621 585 q 528 315 621 383 q 296 246 436 246 q 254 249 279 246 q 364 111 254 111 q 488 186 436 111 z "},"f":{"ha":528,"x_min":0,"x_max":667,"o":"m 551 789 q 457 868 532 868 q 400 835 424 868 q 366 758 376 803 q 351 657 356 713 q 536 664 449 657 q 544 614 544 643 q 528 556 544 579 q 478 531 513 532 q 338 528 446 528 q 294 122 313 261 q 287 61 289 78 q 277 3 285 44 q 263 -57 269 -39 q 242 -105 256 -75 q 211 -148 228 -135 q 170 -172 194 -161 q 115 -183 146 -183 q 44 -156 75 -183 q 0 -75 13 -129 q 132 526 94 -47 q 49 519 90 525 q 43 567 43 550 q 122 660 43 660 l 144 660 q 237 901 156 810 q 481 992 318 992 q 609 963 551 992 q 667 875 667 935 q 639 821 667 844 q 551 789 611 797 z "},"g":{"ha":731,"x_min":-8,"x_max":685,"o":"m 397 671 q 685 579 551 671 q 617 208 640 392 q 608 130 613 181 q 599 49 603 79 q 588 -28 596 18 q 572 -103 581 -74 q 547 -169 563 -132 q 510 -231 531 -207 q 460 -280 490 -254 q 392 -319 429 -306 q 306 -342 356 -333 q 196 -351 256 -351 q 50 -327 108 -351 q -8 -258 -8 -303 q 21 -195 -8 -222 q 81 -156 50 -168 q 210 -226 119 -226 q 401 111 388 -226 q 310 16 361 46 q 213 -14 258 -14 q 81 59 125 -14 q 38 236 38 132 q 141 542 38 413 q 397 671 244 671 m 317 110 q 375 151 340 110 q 432 263 410 192 q 450 385 439 301 q 467 497 461 468 q 382 547 428 547 q 292 468 328 547 q 257 275 257 389 q 273 156 257 201 q 317 110 289 110 z "},"h":{"ha":763,"x_min":58,"x_max":704,"o":"m 274 1031 q 379 906 379 1031 q 335 535 379 801 q 437 635 378 600 q 550 671 496 671 q 664 626 624 671 q 704 508 704 581 q 676 345 704 483 q 647 175 647 207 q 694 92 647 119 q 638 14 678 42 q 550 -14 597 -14 q 465 17 500 -14 q 431 103 431 49 q 457 281 431 147 q 483 467 483 415 q 438 544 483 544 q 364 487 404 544 q 306 354 324 429 l 303 340 q 276 100 276 144 q 282 21 276 68 q 165 -3 229 -3 q 58 75 58 -3 q 112 455 58 115 q 165 850 165 794 q 122 915 165 910 q 172 997 129 964 q 274 1031 214 1031 z "},"i":{"ha":393,"x_min":53,"x_max":379,"o":"m 224 674 q 329 549 329 674 q 299 351 329 493 q 268 176 268 210 q 313 93 268 121 q 255 13 293 40 q 171 -14 217 -14 q 53 113 53 -14 q 84 318 53 178 q 115 493 115 458 q 72 558 115 553 q 122 640 79 607 q 224 674 164 674 m 243 738 q 163 769 190 738 q 136 844 136 800 q 173 941 136 899 q 272 983 210 983 q 351 950 324 983 q 379 871 379 917 q 344 777 379 817 q 243 738 308 738 z "},"j":{"ha":440,"x_min":-250,"x_max":414,"o":"m 267 674 q 372 544 372 674 q 296 -28 372 431 q 184 -265 272 -178 q -56 -351 96 -351 q -131 -345 -92 -351 q -210 -317 -171 -339 q -250 -258 -250 -294 q -224 -200 -250 -229 q -161 -156 -199 -171 q -117 -206 -146 -185 q -56 -226 -87 -226 q 25 -181 -12 -226 q 79 -35 63 -136 q 158 493 158 446 q 115 558 158 553 q 165 640 122 607 q 267 674 207 674 m 278 738 q 198 769 225 738 q 171 844 171 800 q 208 941 171 899 q 307 983 244 983 q 386 950 358 983 q 414 871 414 917 q 378 777 414 817 q 278 738 343 738 z "},"k":{"ha":729,"x_min":58,"x_max":694,"o":"m 442 539 q 405 528 425 539 q 355 474 385 517 q 306 361 325 431 l 303 344 q 276 90 276 181 q 282 11 276 58 q 165 -12 229 -12 q 58 65 58 -12 q 112 445 58 106 q 165 840 165 785 q 122 906 165 900 q 172 988 129 954 q 274 1021 214 1021 q 379 896 379 1021 q 335 531 379 794 q 441 638 393 606 q 546 671 489 671 q 648 631 607 671 q 689 526 689 590 q 635 371 689 440 q 500 288 581 301 q 514 250 506 272 q 526 217 522 228 q 538 190 531 206 q 549 166 544 174 q 558 147 553 158 q 569 132 564 136 q 582 122 575 128 q 597 115 589 117 q 613 114 604 114 q 685 126 642 114 q 694 79 694 94 q 650 10 694 33 q 551 -14 606 -14 q 479 -4 504 -14 q 432 36 454 6 q 346 275 390 94 q 339 299 339 282 q 361 369 339 332 q 390 365 378 365 q 462 401 432 365 q 492 485 492 438 q 442 539 492 539 z "},"l":{"ha":376,"x_min":58,"x_max":363,"o":"m 257 1031 q 363 906 363 1031 q 318 530 363 850 q 274 176 274 210 q 318 93 274 121 q 269 18 303 50 q 182 -14 235 -14 q 58 113 58 -14 q 103 485 58 174 q 149 850 149 796 q 106 915 149 910 q 155 997 113 964 q 257 1031 197 1031 z "},"m":{"ha":1126,"x_min":58,"x_max":1068,"o":"m 296 351 q 276 100 276 188 q 282 21 276 68 q 165 -3 229 -3 q 58 75 58 -3 q 86 263 58 82 q 114 488 114 444 q 71 558 114 549 q 120 642 79 611 q 211 674 161 674 q 329 558 329 674 q 328 548 329 556 q 328 536 328 540 q 428 636 369 601 q 542 671 488 671 q 648 633 608 671 q 694 532 688 594 q 914 671 794 671 q 1028 626 988 671 q 1068 508 1068 581 q 1040 345 1068 483 q 1011 175 1011 207 q 1058 92 1011 119 q 1001 14 1042 42 q 914 -14 961 -14 q 829 17 864 -14 q 794 103 794 49 q 821 281 794 147 q 847 467 847 415 q 801 544 847 544 q 728 489 768 544 q 669 360 688 433 q 667 344 669 356 q 649 100 649 194 q 654 21 649 68 q 538 -3 601 -3 q 431 75 431 -3 q 442 157 431 85 q 467 320 453 229 q 485 457 481 411 l 485 467 q 469 523 485 501 q 429 544 453 544 q 355 486 396 544 q 296 351 314 428 z "},"n":{"ha":754,"x_min":58,"x_max":696,"o":"m 296 351 q 276 100 276 188 q 282 21 276 68 q 165 -3 229 -3 q 58 75 58 -3 q 86 263 58 82 q 114 488 114 444 q 71 558 114 549 q 120 642 79 611 q 211 674 161 674 q 329 558 329 674 q 328 548 329 556 q 328 536 328 540 q 428 636 369 601 q 542 671 488 671 q 656 626 615 671 q 696 508 696 581 q 667 345 696 483 q 639 175 639 207 q 686 92 639 119 q 629 14 669 42 q 542 -14 589 -14 q 457 17 492 -14 q 422 103 422 49 q 449 281 422 147 q 475 467 475 415 q 429 544 475 544 q 355 486 396 544 q 296 351 314 428 z "},"o":{"ha":718,"x_min":35,"x_max":683,"o":"m 371 547 q 291 467 322 547 q 260 286 260 388 q 282 160 260 210 q 344 111 304 111 q 424 190 393 111 q 456 368 456 268 q 434 497 456 447 q 371 547 413 547 m 306 -14 q 108 63 181 -14 q 35 265 35 140 q 140 554 35 436 q 407 672 244 672 q 610 601 536 672 q 683 404 683 529 q 574 110 683 233 q 306 -14 465 -14 z "},"p":{"ha":743,"x_min":18,"x_max":708,"o":"m 526 672 q 658 611 607 672 q 708 422 708 550 q 617 110 708 235 q 408 -14 525 -14 q 261 49 325 -14 q 233 -157 233 -106 q 278 -244 233 -217 q 131 -351 239 -351 q 18 -217 18 -351 q 69 148 18 -153 q 121 489 121 449 q 78 558 121 547 q 126 643 86 613 q 218 674 167 674 q 336 561 336 674 q 335 543 336 550 q 423 639 372 606 q 526 672 474 672 m 319 408 q 276 153 311 349 q 363 110 315 110 q 451 185 414 110 q 489 390 489 261 q 470 504 489 461 q 419 547 451 547 q 369 509 397 547 q 319 408 340 471 z "},"q":{"ha":715,"x_min":35,"x_max":683,"o":"m 683 579 q 610 181 658 476 q 561 -162 561 -114 q 606 -246 561 -218 q 556 -321 592 -289 q 471 -353 519 -353 q 372 -316 397 -353 q 346 -211 346 -279 q 399 111 346 -139 q 210 -14 321 -14 q 83 50 132 -14 q 35 235 35 114 q 140 542 35 414 q 397 671 244 671 q 683 579 553 671 m 431 268 q 447 384 436 301 q 464 499 458 467 q 379 547 418 547 q 290 466 325 547 q 254 256 254 385 q 269 153 254 194 q 314 111 285 111 q 375 154 340 111 q 431 268 410 197 z "},"r":{"ha":550,"x_min":57,"x_max":579,"o":"m 292 324 q 275 88 275 167 q 281 21 275 63 q 163 -3 229 -3 q 57 75 57 -3 q 85 266 57 86 q 113 488 113 446 q 69 558 113 549 q 113 639 75 604 q 213 674 151 674 q 328 560 328 674 q 322 508 328 540 q 413 631 363 590 q 508 672 464 672 q 579 599 579 672 q 564 533 579 567 q 525 481 549 500 q 439 515 482 515 q 292 324 342 515 z "},"s":{"ha":596,"x_min":7,"x_max":565,"o":"m 424 450 q 395 517 418 493 q 340 540 372 540 q 284 522 308 540 q 260 467 260 503 q 287 422 260 439 q 353 396 314 406 q 431 372 392 386 q 497 322 469 357 q 524 232 524 288 q 435 54 524 122 q 229 -14 347 -14 q 7 90 7 -14 q 129 219 7 169 q 170 144 138 169 q 243 119 203 119 q 313 137 285 119 q 340 192 340 154 q 313 229 340 215 q 247 253 286 243 q 170 278 208 263 q 105 330 132 293 q 78 424 78 367 q 165 601 78 529 q 365 674 253 674 q 452 664 410 674 q 530 628 494 654 q 565 563 565 601 q 424 450 565 474 z "},"t":{"ha":542,"x_min":22,"x_max":582,"o":"m 103 660 l 149 660 q 160 739 153 685 q 167 797 167 793 q 261 806 208 806 q 348 794 325 806 q 371 750 371 782 q 358 658 371 728 q 575 665 517 658 q 582 614 582 640 q 513 531 582 536 q 338 528 467 528 q 292 171 292 203 q 313 118 292 136 q 365 100 333 100 q 457 143 421 100 q 494 67 494 106 q 322 -14 494 -14 q 144 33 200 -14 q 89 174 89 81 q 96 256 89 200 q 117 403 103 313 q 135 528 131 494 q 25 519 117 528 q 22 557 22 542 q 103 660 22 660 z "},"u":{"ha":761,"x_min":65,"x_max":706,"o":"m 446 144 q 349 33 410 79 q 219 -14 289 -14 q 106 31 146 -14 q 65 146 65 75 q 93 308 65 176 q 121 486 121 440 q 78 558 121 544 q 127 643 86 613 q 218 674 168 674 q 339 546 339 674 q 312 372 339 497 q 283 189 285 247 q 328 113 283 113 q 399 168 360 113 q 456 301 438 224 q 500 644 493 524 q 597 664 556 664 q 706 564 706 664 q 676 365 706 533 q 646 172 646 197 q 690 92 646 118 q 643 18 678 50 q 554 -14 608 -14 q 467 19 490 -14 q 444 108 444 51 q 446 144 444 132 z "},"v":{"ha":665,"x_min":64,"x_max":663,"o":"m 93 508 q 67 635 93 579 q 199 672 118 672 q 292 645 265 672 q 318 564 318 618 q 296 408 318 524 q 274 229 274 292 q 285 138 274 176 q 374 221 335 151 q 432 371 414 290 q 450 521 450 451 q 429 638 450 597 q 544 672 474 672 q 628 649 594 672 q 663 581 663 626 q 627 415 663 514 q 533 220 592 317 q 382 55 474 124 q 193 -14 290 -14 q 132 -3 160 -14 q 64 183 64 57 q 78 337 64 246 q 93 508 93 428 z "},"w":{"ha":1010,"x_min":64,"x_max":1007,"o":"m 93 508 q 67 635 93 579 q 199 672 118 672 q 292 645 265 672 q 318 564 318 618 q 296 408 318 524 q 274 229 274 292 q 285 138 274 176 q 374 221 335 151 q 432 371 414 290 q 450 521 450 451 q 429 638 450 597 q 544 672 474 672 q 628 649 594 672 q 663 581 663 626 q 607 363 663 493 q 629 138 607 192 q 719 221 679 151 q 776 371 758 290 q 794 521 794 451 q 774 638 794 597 q 889 672 818 672 q 973 649 939 672 q 1007 581 1007 626 q 972 415 1007 514 q 877 220 936 317 q 726 55 818 124 q 538 -14 635 -14 q 476 -3 504 -14 q 432 97 439 29 q 193 -14 318 -14 q 132 -3 160 -14 q 64 183 64 57 q 78 337 64 246 q 93 508 93 428 z "},"x":{"ha":642,"x_min":15,"x_max":607,"o":"m 61 514 q 56 563 56 544 q 94 644 56 610 q 182 678 132 678 q 226 671 206 678 q 262 646 246 664 q 289 615 278 628 q 312 571 300 601 q 328 528 324 540 q 344 479 333 515 q 358 436 356 443 q 425 669 414 519 q 469 672 439 672 q 567 646 531 672 q 604 576 604 619 q 594 533 604 557 q 572 491 583 510 q 534 444 560 472 q 497 404 508 417 q 455 363 485 392 q 422 332 425 335 q 442 292 428 321 q 461 254 456 264 q 479 222 467 244 q 499 190 492 199 q 519 166 506 181 q 543 146 532 151 q 569 135 554 140 q 601 131 585 131 q 607 83 607 103 q 573 13 607 40 q 490 -14 539 -14 q 370 38 407 -14 q 288 229 333 89 q 186 -8 194 75 q 149 -10 172 -10 q 51 13 86 -10 q 15 72 15 35 q 23 108 15 89 q 47 149 31 128 q 77 185 64 169 q 117 225 90 201 q 156 258 144 249 q 196 291 167 268 q 228 317 225 314 q 210 356 222 328 q 192 394 197 383 q 175 426 186 404 q 157 456 164 447 q 138 479 150 465 q 115 499 126 493 q 90 509 104 504 q 61 514 76 514 z "},"y":{"ha":674,"x_min":-250,"x_max":653,"o":"m 346 156 q 442 542 433 379 q 421 638 442 594 q 533 672 469 672 q 653 563 653 672 q 578 294 653 461 q 414 -6 504 128 q 341 -110 369 -72 q 268 -194 313 -149 q 182 -264 224 -240 q 82 -303 140 -287 q -47 -319 24 -319 q -194 -290 -139 -319 q -250 -217 -250 -261 q -153 -108 -250 -158 q -106 -169 -143 -144 q -29 -194 -68 -194 q 215 4 100 -194 q 142 302 213 85 q 4 572 72 519 q 79 644 36 617 q 161 671 122 671 q 233 641 201 671 q 279 551 264 611 q 346 156 317 400 z "},"z":{"ha":656,"x_min":15,"x_max":649,"o":"m 165 671 q 335 658 204 671 q 526 644 465 644 q 625 657 594 644 q 649 586 649 632 q 628 531 649 553 q 292 150 407 299 q 313 151 299 151 q 408 138 343 151 q 503 125 474 125 q 579 142 551 125 q 594 75 594 107 q 563 7 594 28 q 460 -14 532 -14 q 320 -1 425 -14 q 157 11 215 11 q 42 -1 88 11 q 15 57 15 35 q 32 110 15 78 q 374 517 82 197 q 274 525 340 517 q 171 533 207 533 q 89 514 128 533 q 78 588 78 554 q 165 671 78 671 z "},"{":{"ha":572,"x_min":83,"x_max":593,"o":"m 253 397 q 310 347 283 386 q 338 265 338 307 q 319 117 338 256 q 300 -35 300 -22 q 319 -70 300 -60 q 392 -81 339 -81 q 446 -131 446 -81 q 433 -196 446 -153 q 386 -197 415 -197 q 186 -165 247 -197 q 125 -67 125 -132 q 145 100 125 -42 q 165 264 165 242 q 145 333 165 303 q 83 363 125 363 l 92 432 q 171 469 140 432 q 207 549 201 507 l 244 839 q 325 955 256 917 q 544 993 394 993 q 592 992 575 993 q 593 963 593 982 q 519 876 593 876 q 432 860 450 876 q 407 793 414 843 l 374 546 q 328 453 367 497 q 253 397 290 410 z "},"|":{"ha":699,"x_min":272,"x_max":426,"o":"m 289 419 l 289 443 q 272 1017 289 908 q 332 1024 304 1024 q 424 947 424 1024 q 420 842 424 940 q 413 581 417 743 q 410 258 410 419 l 410 235 q 426 -339 410 -231 q 367 -346 394 -346 q 275 -269 275 -346 q 278 -164 275 -262 q 285 97 282 -65 q 289 419 289 258 z "},"}":{"ha":571,"x_min":-21,"x_max":488,"o":"m 318 399 q 260 449 288 410 q 233 531 233 489 q 252 680 233 540 q 271 831 271 819 q 251 866 271 856 q 179 876 232 876 q 124 924 124 876 q 138 992 124 947 q 185 993 156 993 q 385 960 324 993 q 446 863 446 928 q 426 693 446 838 q 406 531 406 549 q 426 463 406 493 q 488 433 446 433 l 479 364 q 400 326 431 364 q 364 247 369 289 l 326 -43 q 246 -159 315 -121 q 26 -197 176 -197 q -19 -196 -4 -197 q -21 -168 -21 -186 q 51 -81 -21 -81 q 139 -64 121 -81 q 164 3 157 -47 l 197 250 q 242 342 204 299 q 318 399 281 386 z "},"~":{"ha":844,"x_min":43,"x_max":801,"o":"m 43 371 q 221 485 43 485 q 419 457 297 485 q 599 429 540 429 q 754 478 700 429 q 801 382 801 428 q 738 296 801 324 q 589 268 675 268 q 425 296 540 268 q 247 324 310 324 q 90 275 144 324 q 43 371 43 325 z "},"¡":{"ha":478,"x_min":75,"x_max":403,"o":"m 294 -229 q 297 -289 294 -272 q 186 -304 236 -304 q 75 -222 75 -304 q 115 -16 75 -192 q 156 272 156 160 q 153 315 156 303 q 251 342 203 342 q 322 323 294 342 q 349 269 349 304 q 335 170 349 261 q 308 -38 322 79 q 294 -229 294 -156 m 300 674 q 374 644 344 674 q 403 569 403 615 q 363 471 403 515 q 265 426 322 426 q 192 458 222 426 q 163 535 163 489 q 204 631 163 588 q 300 674 246 674 z "},"¢":{"ha":797,"x_min":83,"x_max":758,"o":"m 385 -22 q 335 19 335 -22 q 344 101 335 32 q 158 192 232 121 q 83 383 83 263 q 188 664 83 558 q 439 797 292 769 q 453 940 447 853 q 488 947 472 947 q 536 907 536 947 q 522 807 536 904 l 532 807 q 697 769 635 807 q 758 682 758 731 q 733 628 758 653 q 658 592 707 604 q 524 672 607 672 q 513 672 519 672 q 504 671 507 671 q 442 229 481 493 q 468 228 450 228 q 607 311 558 228 q 696 242 696 294 q 667 169 696 200 q 592 123 638 138 q 503 101 546 108 q 424 94 461 94 q 415 -18 418 56 l 385 -22 m 300 411 q 367 263 300 315 l 418 638 q 333 542 365 601 q 300 411 300 482 z "},"£":{"ha":797,"x_min":7,"x_max":707,"o":"m 594 433 l 501 438 q 462 277 501 344 q 303 144 422 210 q 392 131 331 143 q 481 119 454 119 q 576 211 569 119 l 590 211 q 707 133 707 211 q 671 53 707 86 q 589 8 635 21 q 493 -4 543 -4 q 265 18 371 -4 q 147 40 160 40 q 109 10 135 22 q 58 -3 83 -3 q 7 49 7 -3 q 43 119 7 88 q 151 156 79 151 q 256 285 225 235 q 286 394 286 336 q 281 438 286 419 q 186 435 240 438 q 101 433 132 433 q 99 463 99 453 q 163 546 99 539 q 247 550 167 546 q 204 699 204 646 q 301 868 204 800 q 526 936 397 936 q 631 907 592 936 q 669 839 669 878 q 642 778 669 807 q 560 733 614 749 q 488 789 539 789 q 433 767 456 789 q 410 708 410 746 q 442 626 410 682 q 481 556 474 571 q 685 572 599 561 q 689 519 689 544 q 669 456 689 478 q 594 433 649 433 z "},"¥":{"ha":797,"x_min":39,"x_max":794,"o":"m 724 492 l 724 478 q 664 404 724 404 l 479 404 l 469 328 q 703 339 589 328 l 703 325 q 643 251 703 251 l 460 251 q 442 81 442 128 q 446 10 442 47 q 340 -4 401 -4 q 258 14 282 -4 q 235 69 235 32 q 257 250 235 103 q 42 240 122 247 q 39 265 39 249 q 97 328 39 328 l 269 328 l 281 404 q 63 393 165 403 q 60 418 60 401 q 118 481 60 481 l 251 481 q 76 851 156 767 q 214 928 147 928 q 303 867 278 928 q 417 532 372 690 q 544 751 476 619 q 619 933 613 882 q 794 846 794 933 q 722 701 794 808 q 553 481 649 594 q 724 492 636 482 z "},"¦":{"ha":797,"x_min":319,"x_max":474,"o":"m 336 769 l 336 779 q 319 1017 336 972 q 379 1024 351 1024 q 471 947 471 1024 q 467 903 471 944 q 460 796 464 863 q 457 663 457 729 l 457 653 q 474 417 457 461 q 414 408 442 408 q 322 483 322 408 q 326 527 322 486 q 333 635 329 568 q 336 769 336 703 m 336 15 l 336 25 q 319 263 336 218 q 379 269 351 269 q 471 193 471 269 q 467 149 471 190 q 460 42 464 108 q 457 -92 457 -25 l 457 -101 q 474 -337 457 -293 q 414 -346 442 -346 q 322 -271 322 -346 q 326 -227 322 -268 q 333 -119 329 -186 q 336 15 336 -51 z "},"§":{"ha":669,"x_min":26,"x_max":669,"o":"m 94 429 q 189 607 94 540 q 163 704 163 651 q 251 875 163 817 q 464 933 340 933 q 617 903 565 933 q 669 829 669 872 q 635 761 669 793 q 542 717 600 729 q 506 782 536 757 q 438 807 475 807 q 372 786 400 807 q 344 726 344 765 q 374 658 344 689 q 445 605 403 628 q 530 556 488 582 q 601 488 572 529 q 631 393 631 447 q 542 219 631 293 q 569 125 569 175 q 475 -46 569 17 q 260 -108 381 -108 q 84 -78 142 -108 q 26 -3 26 -47 q 53 59 26 29 q 125 104 81 89 q 275 17 158 17 q 351 43 319 17 q 382 117 382 69 q 352 183 382 156 q 281 231 322 211 q 197 273 239 250 q 124 335 154 296 q 94 429 94 374 m 225 504 q 267 422 225 458 q 385 344 310 385 q 494 272 460 303 q 503 308 503 290 q 460 387 503 350 q 344 468 417 424 q 233 549 271 513 q 225 504 225 531 z "},"¨":{"ha":568,"x_min":164,"x_max":713,"o":"m 265 736 q 190 765 217 736 q 164 838 164 794 q 199 930 164 889 q 294 971 235 971 q 369 939 342 971 q 396 863 396 907 q 361 774 396 813 q 265 736 326 736 m 582 736 q 507 765 533 736 q 481 838 481 794 q 516 930 481 889 q 611 971 551 971 q 685 939 658 971 q 713 863 713 907 q 678 774 713 813 q 582 736 643 736 z "},"©":{"ha":1167,"x_min":161,"x_max":1122,"o":"m 851 224 q 794 160 851 188 q 660 133 738 133 q 551 149 603 133 q 453 199 500 165 q 379 297 407 233 q 351 443 351 360 q 443 683 351 601 q 651 765 535 765 q 737 753 693 765 q 817 713 781 742 q 853 644 853 685 q 751 576 853 590 q 708 642 740 619 q 642 664 676 664 q 549 607 586 664 q 511 458 511 550 q 559 288 511 342 q 672 235 607 235 q 794 299 747 235 q 851 224 851 264 m 1122 444 q 983 94 1122 236 q 643 -47 843 -47 q 300 94 439 -47 q 161 444 161 235 q 300 796 161 656 q 643 936 439 936 q 983 796 844 936 q 1122 444 1122 656 m 1022 444 q 912 742 1022 628 q 643 857 801 857 q 372 743 482 857 q 261 444 261 629 q 372 146 261 260 q 643 32 482 32 q 912 146 801 32 q 1022 444 1022 260 z "},"ª":{"ha":479,"x_min":28,"x_max":408,"o":"m 279 669 q 241 665 254 667 q 210 656 228 663 q 185 638 193 650 q 178 610 178 626 q 207 579 178 579 q 268 600 244 579 l 271 622 q 279 669 274 650 m 147 765 q 105 783 122 768 q 88 815 88 797 q 142 876 88 858 q 254 893 196 893 q 364 868 319 893 q 408 788 408 843 q 395 690 408 776 q 382 556 382 603 q 385 518 382 529 q 319 503 361 503 q 261 546 261 503 q 156 497 219 497 q 80 524 111 497 q 49 597 49 550 q 54 639 49 621 q 67 669 60 657 q 92 692 75 682 q 119 708 108 703 q 156 717 131 713 q 195 724 182 722 q 240 730 208 726 q 285 735 271 733 q 288 772 288 763 q 277 806 288 796 q 239 817 267 817 q 147 765 175 817 m 390 397 q 282 297 390 297 q 226 302 267 297 q 164 307 186 307 l 157 307 q 31 285 100 307 q 28 328 28 304 q 131 428 28 428 q 181 424 139 428 q 247 419 222 419 l 265 419 q 385 440 331 419 q 390 397 390 417 z "},"«":{"ha":789,"x_min":75,"x_max":768,"o":"m 279 326 q 346 206 313 275 q 379 114 379 138 q 276 33 379 72 q 75 326 189 121 q 353 619 238 528 q 435 543 435 576 q 279 326 435 506 m 613 326 q 679 206 646 275 q 713 114 713 138 q 610 33 713 72 q 408 326 522 121 q 686 619 571 528 q 768 543 768 576 q 613 326 768 506 z "},"¬":{"ha":797,"x_min":79,"x_max":692,"o":"m 688 467 q 692 139 692 143 q 673 67 692 89 q 604 44 654 44 q 515 61 551 44 q 550 342 550 179 l 550 363 l 292 363 q 93 333 179 363 q 79 393 79 364 q 163 467 79 467 l 688 467 z "},"®":{"ha":794,"x_min":106,"x_max":740,"o":"m 578 494 q 583 472 583 483 q 569 448 583 457 q 536 439 556 439 q 481 464 501 439 q 390 582 421 526 l 390 550 q 403 456 390 492 q 351 442 376 442 q 286 483 286 442 q 288 525 286 496 q 289 565 289 554 l 289 658 q 282 778 289 731 q 417 786 386 786 q 572 678 572 786 q 489 581 572 607 q 553 500 499 561 q 578 494 558 494 m 418 626 q 472 678 472 626 q 453 719 472 703 q 408 735 435 735 l 390 735 l 390 628 q 418 626 396 626 m 648 842 q 694 795 648 842 q 740 611 740 749 q 648 381 740 474 q 424 288 556 288 q 197 381 289 288 q 106 611 106 474 q 197 842 106 750 q 424 935 289 935 q 648 842 556 935 m 590 427 q 624 462 590 427 q 658 611 658 497 q 590 795 658 725 q 424 865 522 865 q 256 795 324 865 q 188 611 188 725 q 256 427 188 497 q 424 357 324 357 q 590 427 522 357 z "},"¯":{"ha":572,"x_min":121,"x_max":582,"o":"m 383 897 q 582 908 465 897 q 581 884 582 906 q 580 855 581 863 q 576 829 579 847 q 569 803 574 811 q 557 783 564 794 q 538 768 550 772 q 511 764 526 764 l 483 767 q 414 772 457 769 q 332 774 371 774 l 294 774 q 121 764 208 774 q 121 785 121 767 q 122 812 121 803 q 124 838 122 821 q 131 865 126 856 q 142 886 135 875 q 160 903 149 897 q 185 908 171 908 q 252 903 189 908 q 346 897 315 897 l 383 897 z "},"°":{"ha":488,"x_min":65,"x_max":490,"o":"m 65 722 q 134 908 65 829 q 311 988 203 988 q 441 936 392 988 q 490 804 490 885 q 422 617 490 697 q 246 538 354 538 q 115 589 164 538 q 65 722 65 640 m 294 892 q 210 842 243 892 q 178 733 178 793 q 197 660 178 688 q 256 633 217 633 q 338 683 307 633 q 369 793 369 733 q 351 865 369 838 q 294 892 332 892 z "},"±":{"ha":797,"x_min":60,"x_max":719,"o":"m 685 79 q 665 20 685 44 q 614 -4 646 -4 q 508 3 590 -4 q 383 11 425 11 q 83 -4 226 11 q 78 54 78 25 q 95 112 78 86 q 149 138 113 138 q 242 131 154 138 q 394 124 331 124 q 676 138 581 124 q 685 79 685 121 m 453 463 q 714 478 571 463 q 719 419 719 461 q 699 360 719 385 q 647 336 679 336 q 557 343 614 336 q 451 350 500 350 q 467 175 451 260 q 407 167 422 167 q 349 184 374 167 q 324 235 324 201 q 331 293 324 249 q 338 351 338 338 q 65 336 290 351 q 60 394 60 365 q 77 452 60 426 q 132 478 94 478 q 199 472 143 478 q 340 464 256 467 q 324 703 340 565 q 383 708 342 708 q 442 689 418 708 q 467 638 467 669 q 460 558 467 606 q 453 463 453 511 z "},"²":{"ha":693,"x_min":75,"x_max":611,"o":"m 226 707 q 147 776 147 719 q 197 863 147 825 q 304 918 246 901 q 410 935 363 935 q 560 892 510 935 q 611 783 611 850 q 584 679 611 729 q 503 583 557 629 q 411 510 450 538 q 308 444 372 483 q 378 443 332 443 q 583 469 497 443 q 604 396 604 428 q 558 322 604 336 q 383 306 501 306 q 253 307 331 306 q 138 308 175 308 q 75 360 75 308 q 85 419 75 383 q 422 758 422 624 q 363 808 422 808 q 226 707 283 808 z "},"³":{"ha":685,"x_min":75,"x_max":597,"o":"m 239 672 q 408 782 408 675 q 354 824 408 824 q 277 804 318 824 q 217 757 236 785 q 164 821 164 772 q 208 887 164 860 q 299 924 251 914 q 386 935 347 935 q 545 900 493 935 q 597 807 597 865 q 562 703 597 747 q 465 636 526 658 q 567 501 567 601 q 480 342 567 394 q 263 289 393 289 q 194 294 232 289 q 116 318 157 299 q 75 369 75 338 q 150 471 75 421 q 278 406 190 406 q 382 506 382 406 q 353 563 382 540 q 265 585 324 585 q 229 624 229 585 q 239 672 229 643 z "},"´":{"ha":378,"x_min":0,"x_max":378,"o":"m 338 874 q 183 802 303 853 q 36 726 63 751 q 0 804 0 761 q 37 861 0 833 q 122 910 74 889 q 229 969 171 932 q 321 1046 288 1006 q 361 1001 344 1031 q 378 946 378 972 q 338 874 378 899 z "},"µ":{"ha":756,"x_min":13,"x_max":700,"o":"m 440 144 q 384 33 421 79 q 296 -14 347 -14 q 229 7 264 -14 q 213 -101 213 -46 q 272 -244 213 -206 q 125 -351 233 -351 q 13 -217 13 -351 q 63 146 13 -153 q 115 486 114 444 q 72 558 115 544 q 122 643 81 613 q 213 674 163 674 q 333 546 333 674 q 306 372 333 497 q 278 189 279 247 q 322 113 278 113 q 393 168 354 113 q 450 301 432 224 q 494 644 488 524 q 592 664 550 664 q 700 564 700 664 q 670 365 700 533 q 640 172 640 197 q 685 92 640 118 q 638 18 672 50 q 549 -14 603 -14 q 462 19 485 -14 q 439 108 439 51 q 440 144 439 132 z "},"¶":{"ha":700,"x_min":75,"x_max":744,"o":"m 328 317 q 264 293 325 293 q 129 349 183 293 q 75 497 75 404 q 160 714 75 629 q 364 799 246 799 q 465 796 374 799 q 600 793 556 793 q 742 794 692 793 q 744 764 744 772 q 654 697 744 697 l 622 697 q 529 154 563 419 q 264 -165 489 -165 q 160 -90 160 -165 q 175 -31 160 -65 q 256 -47 214 -47 q 325 -26 297 -47 q 365 37 353 -4 q 382 115 376 78 q 391 204 388 151 q 397 279 394 257 q 469 696 435 531 q 393 699 429 696 q 328 317 364 583 z "},"·":{"ha":318,"x_min":36,"x_max":293,"o":"m 149 232 q 65 265 94 232 q 36 344 36 297 q 76 447 36 401 q 181 492 115 492 q 263 457 233 492 q 293 372 293 422 q 255 274 293 317 q 149 232 217 232 z "},"¸":{"ha":547,"x_min":22,"x_max":336,"o":"m 161 44 l 274 38 q 261 13 271 29 q 245 -17 251 -3 q 239 -44 239 -32 q 254 -70 239 -57 q 288 -94 269 -83 q 321 -128 306 -106 q 336 -182 336 -151 q 262 -302 336 -254 q 107 -350 188 -350 q 22 -293 22 -350 q 64 -212 22 -258 q 108 -231 79 -231 q 144 -216 131 -231 q 157 -179 157 -201 q 133 -131 157 -158 q 108 -83 108 -103 q 161 44 108 -43 z "},"¹":{"ha":606,"x_min":88,"x_max":518,"o":"m 414 428 q 514 433 464 428 q 518 396 518 417 q 505 332 518 360 q 464 304 492 304 q 421 305 456 304 q 326 306 386 306 q 192 307 265 307 q 90 306 126 307 q 88 344 88 331 q 160 431 88 431 l 222 431 q 271 808 244 576 q 154 781 210 801 q 147 828 147 804 q 201 915 147 903 q 393 935 283 935 q 475 863 475 935 q 457 749 475 839 q 435 625 439 658 q 414 428 414 479 z "},"º":{"ha":535,"x_min":28,"x_max":451,"o":"m 239 582 q 310 623 285 582 q 336 718 336 664 q 271 817 336 817 q 201 776 226 817 q 176 682 176 736 q 239 582 176 582 m 229 508 q 106 552 151 508 q 60 669 60 596 q 122 826 60 760 q 279 893 185 893 q 405 850 358 893 q 451 733 451 807 q 388 576 451 643 q 229 508 324 508 m 390 397 q 282 297 390 297 q 226 302 267 297 q 164 307 186 307 l 157 307 q 31 285 100 307 q 28 328 28 304 q 131 428 28 428 q 181 424 139 428 q 247 419 222 419 l 265 419 q 385 440 331 419 q 390 397 390 417 z "},"»":{"ha":793,"x_min":21,"x_max":718,"o":"m 179 326 q 113 439 149 371 q 78 533 78 507 q 99 572 78 553 q 182 619 119 592 q 383 326 261 540 q 103 33 217 124 q 21 106 21 67 q 179 326 21 153 m 514 326 q 448 439 483 371 q 413 533 413 507 q 433 572 413 553 q 517 619 454 592 q 718 326 596 540 q 438 33 551 124 q 356 106 356 67 q 514 326 356 153 z "},"¼":{"ha":1383,"x_min":88,"x_max":1296,"o":"m 346 -53 l 740 606 q 981 1026 892 856 q 1042 1013 1014 1026 q 1069 972 1069 999 q 1054 928 1069 950 l 660 269 q 419 -151 501 8 q 358 -135 385 -150 q 331 -94 331 -121 q 346 -53 331 -76 m 414 428 q 514 433 464 428 q 518 396 518 417 q 505 332 518 360 q 464 304 492 304 q 421 305 456 304 q 326 306 386 306 q 192 307 265 307 q 90 306 126 307 q 88 344 88 331 q 160 431 88 431 l 222 431 q 271 808 244 576 q 154 781 210 801 q 147 828 147 804 q 201 915 147 903 q 393 935 283 935 q 475 863 475 935 q 457 749 475 839 q 435 625 439 658 q 414 428 414 479 m 1051 603 q 1168 632 1086 632 q 1253 625 1218 632 q 1245 574 1253 618 q 1224 445 1238 529 q 1199 275 1210 361 q 1289 292 1261 279 q 1296 231 1296 250 q 1271 171 1296 186 q 1182 153 1246 156 q 1174 64 1174 99 q 1181 -3 1174 32 q 1107 -14 1139 -14 q 1038 -1 1057 -14 q 1018 42 1018 13 q 1035 151 1018 44 q 793 161 833 154 q 758 210 758 168 q 768 271 758 213 q 910 456 828 358 q 1051 603 993 554 m 917 271 q 1051 268 943 268 q 1081 474 1064 375 q 917 271 981 364 z "},"½":{"ha":1425,"x_min":88,"x_max":1343,"o":"m 346 -53 l 740 606 q 981 1026 892 856 q 1042 1013 1014 1026 q 1069 972 1069 999 q 1054 928 1069 950 l 660 269 q 419 -151 501 8 q 358 -135 385 -150 q 331 -94 331 -121 q 346 -53 331 -76 m 414 428 q 514 433 464 428 q 518 396 518 417 q 505 332 518 360 q 464 304 492 304 q 421 305 456 304 q 326 306 386 306 q 192 307 265 307 q 90 306 126 307 q 88 344 88 331 q 160 431 88 431 l 222 431 q 271 808 244 576 q 154 781 210 801 q 147 828 147 804 q 201 915 147 903 q 393 935 283 935 q 475 863 475 935 q 457 749 475 839 q 435 625 439 658 q 414 428 414 479 m 958 399 q 879 468 879 411 q 928 555 879 517 q 1036 610 978 593 q 1142 626 1094 626 q 1292 584 1242 626 q 1343 475 1343 542 q 1316 371 1343 421 q 1235 275 1289 321 q 1143 202 1182 229 q 1040 136 1104 175 q 1110 135 1064 135 q 1315 161 1229 135 q 1336 88 1336 119 q 1290 14 1336 28 q 1115 -3 1233 -3 q 985 -1 1063 -3 q 869 0 907 0 q 807 51 807 0 q 817 111 807 75 q 1154 450 1154 315 q 1094 500 1154 500 q 958 399 1015 500 z "},"¾":{"ha":1399,"x_min":75,"x_max":1311,"o":"m 361 -53 l 756 606 q 996 1026 907 856 q 1057 1013 1029 1026 q 1085 972 1085 999 q 1069 928 1085 950 l 675 269 q 435 -151 517 8 q 373 -135 400 -150 q 346 -94 346 -121 q 361 -53 346 -76 m 1067 603 q 1183 632 1101 632 q 1268 625 1233 632 q 1260 574 1268 618 q 1239 445 1253 529 q 1214 275 1225 361 q 1304 292 1276 279 q 1311 231 1311 250 q 1286 171 1311 186 q 1197 153 1261 156 q 1189 64 1189 99 q 1196 -3 1189 32 q 1122 -14 1154 -14 q 1053 -1 1072 -14 q 1033 42 1033 13 q 1050 151 1033 44 q 808 161 849 154 q 774 210 774 168 q 783 271 774 213 q 926 456 843 358 q 1067 603 1008 554 m 932 271 q 1067 268 958 268 q 1096 474 1079 375 q 932 271 996 364 m 239 672 q 408 782 408 675 q 354 824 408 824 q 277 804 318 824 q 217 757 236 785 q 164 821 164 772 q 208 887 164 860 q 299 924 251 914 q 386 935 347 935 q 545 900 493 935 q 597 807 597 865 q 562 703 597 747 q 465 636 526 658 q 567 501 567 601 q 480 342 567 394 q 263 289 393 289 q 194 294 232 289 q 116 318 157 299 q 75 369 75 338 q 150 471 75 421 q 278 406 190 406 q 382 506 382 406 q 353 563 382 540 q 265 585 324 585 q 229 624 229 585 q 239 672 229 643 z "},"¿":{"ha":569,"x_min":0,"x_max":494,"o":"m 231 314 q 332 343 290 343 q 435 269 435 343 q 411 185 435 228 q 353 108 388 143 q 285 37 319 72 q 226 -40 250 1 q 203 -124 203 -82 q 268 -183 203 -183 q 335 -155 301 -183 q 382 -79 368 -126 q 494 -160 494 -93 q 417 -265 494 -225 q 239 -304 340 -304 q 74 -265 147 -304 q 0 -139 0 -225 q 24 -30 0 -79 q 83 54 49 19 q 152 121 118 89 q 210 192 186 153 q 235 275 235 232 q 231 314 235 293 m 378 675 q 451 646 422 675 q 481 571 481 617 q 440 472 481 517 q 343 428 400 428 q 270 459 300 428 q 240 536 240 490 q 282 632 240 589 q 378 675 324 675 z "},"À":{"ha":824,"x_min":-14,"x_max":801,"o":"m 563 42 q 519 265 544 117 q 403 261 463 261 q 285 265 344 261 q 169 -18 182 18 q -14 69 -14 -14 q 4 128 -14 90 q 76 272 22 167 q 181 485 131 378 q 371 931 342 829 q 485 939 440 939 q 617 849 600 939 q 704 407 675 531 q 801 19 768 128 q 653 -14 718 -14 q 563 42 575 -14 m 326 1317 q 410 1226 351 1274 q 512 1142 469 1179 q 554 1072 554 1104 q 544 1031 554 1047 q 506 994 533 1015 q 393 1074 464 1031 q 284 1147 322 1117 q 246 1211 246 1178 q 326 1317 246 1276 m 465 763 q 338 399 413 589 q 429 396 382 396 q 501 399 482 396 q 465 763 479 582 z "},"Á":{"ha":824,"x_min":-14,"x_max":801,"o":"m 563 42 q 519 265 544 117 q 403 261 463 261 q 285 265 344 261 q 169 -18 182 18 q -14 69 -14 -14 q 4 128 -14 90 q 76 272 22 167 q 181 485 131 378 q 371 931 342 829 q 485 939 440 939 q 617 849 600 939 q 704 407 675 531 q 801 19 768 128 q 653 -14 718 -14 q 563 42 575 -14 m 681 1142 q 526 1070 646 1121 q 379 994 406 1019 q 343 1072 343 1029 q 380 1129 343 1101 q 465 1178 417 1157 q 572 1237 514 1200 q 664 1314 631 1274 q 704 1269 688 1299 q 721 1214 721 1240 q 681 1142 721 1167 m 465 763 q 338 399 413 589 q 429 396 382 396 q 501 399 482 396 q 465 763 479 582 z "},"Â":{"ha":824,"x_min":-14,"x_max":801,"o":"m 563 42 q 519 265 544 117 q 403 261 463 261 q 285 265 344 261 q 169 -18 182 18 q -14 69 -14 -14 q 4 128 -14 90 q 76 272 22 167 q 181 485 131 378 q 371 931 342 829 q 485 939 440 939 q 617 849 600 939 q 704 407 675 531 q 801 19 768 128 q 653 -14 718 -14 q 563 42 575 -14 m 500 1267 q 589 1204 554 1231 q 656 1140 624 1178 q 688 1071 688 1101 q 662 1024 688 1049 q 596 989 636 999 q 540 1058 569 1028 q 494 1100 511 1089 l 478 1113 q 303 1000 333 1000 q 267 1010 279 1000 q 238 1053 254 1021 q 500 1267 358 1176 m 465 763 q 338 399 413 589 q 429 396 382 396 q 501 399 482 396 q 465 763 479 582 z "},"Ã":{"ha":824,"x_min":-14,"x_max":801,"o":"m 563 42 q 519 265 544 117 q 403 261 463 261 q 285 265 344 261 q 169 -18 182 18 q -14 69 -14 -14 q 4 128 -14 90 q 76 272 22 167 q 181 485 131 378 q 371 931 342 829 q 485 939 440 939 q 617 849 600 939 q 704 407 675 531 q 801 19 768 128 q 653 -14 718 -14 q 563 42 575 -14 m 719 1157 q 658 1055 719 1100 q 533 1010 596 1010 q 449 1040 501 1010 q 374 1069 396 1069 q 278 1014 346 1069 q 235 1063 235 1032 q 298 1164 235 1118 q 421 1210 361 1210 q 506 1180 453 1210 q 582 1150 558 1150 q 676 1206 611 1150 q 706 1190 692 1203 q 719 1157 719 1176 m 465 763 q 338 399 413 589 q 429 396 382 396 q 501 399 482 396 q 465 763 479 582 z "},"Ä":{"ha":824,"x_min":-14,"x_max":801,"o":"m 563 42 q 519 265 544 117 q 403 261 463 261 q 285 265 344 261 q 169 -18 182 18 q -14 69 -14 -14 q 4 128 -14 90 q 76 272 22 167 q 181 485 131 378 q 371 931 342 829 q 485 939 440 939 q 617 849 600 939 q 704 407 675 531 q 801 19 768 128 q 653 -14 718 -14 q 563 42 575 -14 m 304 1004 q 229 1033 256 1004 q 203 1106 203 1063 q 238 1198 203 1157 q 333 1239 274 1239 q 408 1207 381 1239 q 435 1131 435 1175 q 400 1042 435 1081 q 304 1004 365 1004 m 621 1004 q 546 1033 572 1004 q 519 1106 519 1063 q 555 1198 519 1157 q 650 1239 590 1239 q 724 1207 697 1239 q 751 1131 751 1175 q 717 1042 751 1081 q 621 1004 682 1004 m 465 763 q 338 399 413 589 q 429 396 382 396 q 501 399 482 396 q 465 763 479 582 z "},"Å":{"ha":824,"x_min":-14,"x_max":801,"o":"m 563 42 q 519 265 544 117 q 403 261 463 261 q 285 265 344 261 q 169 -18 182 18 q -14 69 -14 -14 q 4 128 -14 90 q 76 272 22 167 q 181 485 131 378 q 371 931 342 829 q 485 939 440 939 q 617 849 600 939 q 704 407 675 531 q 801 19 768 128 q 653 -14 718 -14 q 563 42 575 -14 m 471 1018 q 375 1055 411 1018 q 339 1153 339 1092 q 388 1285 339 1228 q 514 1342 438 1342 q 608 1306 574 1342 q 643 1208 643 1269 q 597 1074 643 1129 q 471 1018 550 1018 m 465 763 q 338 399 413 589 q 429 396 382 396 q 501 399 482 396 q 465 763 479 582 m 481 1088 q 541 1119 518 1088 q 564 1190 564 1150 q 549 1250 564 1228 q 504 1272 533 1272 q 443 1241 467 1272 q 419 1169 419 1210 q 435 1110 419 1133 q 481 1088 451 1088 z "},"Æ":{"ha":1106,"x_min":-61,"x_max":1126,"o":"m 1100 750 q 879 779 1036 779 q 765 775 833 779 q 740 564 763 728 q 969 569 925 564 q 972 521 972 542 q 911 424 972 431 q 719 421 878 421 q 692 140 692 194 q 781 138 731 138 q 931 147 854 138 q 1032 168 1008 156 q 1043 90 1043 115 q 994 10 1043 24 q 775 -4 946 -4 q 518 -1 563 -4 q 471 11 485 0 q 457 47 457 22 q 481 263 457 93 q 393 261 451 261 q 264 264 344 261 q 92 -14 133 68 q -61 71 -61 7 q -35 138 -61 97 q 58 272 -8 178 q 157 414 125 365 q 467 908 354 701 q 876 924 711 924 q 1115 897 1089 924 q 1126 858 1126 886 q 1100 750 1126 803 m 536 682 l 353 397 q 419 396 372 396 q 500 399 461 396 q 536 682 529 621 z "},"Ç":{"ha":789,"x_min":61,"x_max":810,"o":"m 633 236 q 736 142 736 199 q 656 40 736 86 q 460 -12 575 -7 q 453 -44 453 -31 q 468 -70 453 -57 q 501 -94 483 -83 q 535 -128 519 -106 q 550 -182 550 -151 q 476 -302 550 -254 q 321 -350 401 -350 q 236 -293 236 -350 q 278 -212 236 -258 q 322 -231 293 -231 q 358 -216 344 -231 q 371 -179 371 -201 q 347 -131 371 -158 q 322 -83 322 -103 q 346 -6 322 -50 q 137 117 213 18 q 61 367 61 217 q 109 625 61 511 q 233 804 157 739 q 395 902 310 869 q 567 935 481 935 q 740 890 671 935 q 810 771 810 846 q 774 705 810 731 q 679 672 738 679 q 628 764 667 733 q 542 794 590 794 q 363 676 431 794 q 294 399 294 557 q 340 202 294 278 q 479 126 386 126 q 633 236 571 126 z "},"È":{"ha":724,"x_min":75,"x_max":744,"o":"m 718 750 q 497 779 654 779 q 383 775 453 779 q 358 564 381 728 q 588 569 543 564 q 590 521 590 542 q 529 424 590 431 q 338 421 496 421 q 310 140 310 194 q 399 138 349 138 q 549 147 472 138 q 650 168 626 156 q 661 90 661 115 q 613 10 661 24 q 393 -4 564 -4 q 136 -1 181 -4 q 89 11 103 0 q 75 47 75 22 q 122 425 75 86 q 168 876 168 764 q 167 911 168 901 q 494 924 331 924 q 733 897 707 924 q 744 858 744 886 q 718 750 744 803 m 343 1317 q 427 1226 368 1274 q 528 1142 486 1179 q 571 1072 571 1104 q 560 1031 571 1047 q 522 994 550 1015 q 410 1074 481 1031 q 301 1147 339 1117 q 263 1211 263 1178 q 343 1317 263 1276 z "},"É":{"ha":724,"x_min":75,"x_max":744,"o":"m 718 750 q 497 779 654 779 q 383 775 453 779 q 358 564 381 728 q 588 569 543 564 q 590 521 590 542 q 529 424 590 431 q 338 421 496 421 q 310 140 310 194 q 399 138 349 138 q 549 147 472 138 q 650 168 626 156 q 661 90 661 115 q 613 10 661 24 q 393 -4 564 -4 q 136 -1 181 -4 q 89 11 103 0 q 75 47 75 22 q 122 425 75 86 q 168 876 168 764 q 167 911 168 901 q 494 924 331 924 q 733 897 707 924 q 744 858 744 886 q 718 750 744 803 m 697 1142 q 542 1070 663 1121 q 396 994 422 1019 q 360 1072 360 1029 q 397 1129 360 1101 q 482 1178 433 1157 q 589 1237 531 1200 q 681 1314 647 1274 q 721 1269 704 1299 q 738 1214 738 1240 q 697 1142 738 1167 z "},"Ê":{"ha":724,"x_min":75,"x_max":744,"o":"m 718 750 q 497 779 654 779 q 383 775 453 779 q 358 564 381 728 q 588 569 543 564 q 590 521 590 542 q 529 424 590 431 q 338 421 496 421 q 310 140 310 194 q 399 138 349 138 q 549 147 472 138 q 650 168 626 156 q 661 90 661 115 q 613 10 661 24 q 393 -4 564 -4 q 136 -1 181 -4 q 89 11 103 0 q 75 47 75 22 q 122 425 75 86 q 168 876 168 764 q 167 911 168 901 q 494 924 331 924 q 733 897 707 924 q 744 858 744 886 q 718 750 744 803 m 517 1267 q 606 1204 571 1231 q 672 1140 640 1178 q 704 1071 704 1101 q 678 1024 704 1049 q 613 989 653 999 q 557 1058 586 1028 q 511 1100 528 1089 l 494 1113 q 319 1000 351 1000 q 283 1010 296 1000 q 254 1053 271 1021 q 517 1267 375 1176 z "},"Ë":{"ha":747,"x_min":75,"x_max":768,"o":"m 718 750 q 497 779 654 779 q 383 775 453 779 q 358 564 381 728 q 588 569 543 564 q 590 521 590 542 q 529 424 590 431 q 338 421 496 421 q 310 140 310 194 q 399 138 349 138 q 549 147 472 138 q 650 168 626 156 q 661 90 661 115 q 613 10 661 24 q 393 -4 564 -4 q 136 -1 181 -4 q 89 11 103 0 q 75 47 75 22 q 122 425 75 86 q 168 876 168 764 q 167 911 168 901 q 494 924 331 924 q 733 897 707 924 q 744 858 744 886 q 718 750 744 803 m 321 1004 q 246 1033 272 1004 q 219 1106 219 1063 q 255 1198 219 1157 q 350 1239 290 1239 q 424 1207 397 1239 q 451 1131 451 1175 q 417 1042 451 1081 q 321 1004 382 1004 m 638 1004 q 563 1033 589 1004 q 536 1106 536 1063 q 572 1198 536 1157 q 667 1239 607 1239 q 741 1207 714 1239 q 768 1131 768 1175 q 733 1042 768 1081 q 638 1004 699 1004 z "},"Ì":{"ha":422,"x_min":75,"x_max":413,"o":"m 286 925 q 400 851 400 925 q 394 807 400 844 q 376 696 388 769 q 354 544 364 622 l 319 276 q 303 93 303 157 q 308 11 303 46 q 182 -4 263 -4 q 99 17 124 -4 q 75 82 75 38 q 82 140 75 90 q 107 322 89 189 q 144 607 125 454 q 175 917 171 819 q 286 925 218 925 m 185 1317 q 269 1226 210 1274 q 370 1142 328 1179 q 413 1072 413 1104 q 402 1031 413 1047 q 364 994 392 1015 q 251 1074 322 1031 q 142 1147 181 1117 q 104 1211 104 1178 q 185 1317 104 1276 z "},"Í":{"ha":422,"x_min":75,"x_max":551,"o":"m 286 925 q 400 851 400 925 q 394 807 400 844 q 376 696 388 769 q 354 544 364 622 l 319 276 q 303 93 303 157 q 308 11 303 46 q 182 -4 263 -4 q 99 17 124 -4 q 75 82 75 38 q 82 140 75 90 q 107 322 89 189 q 144 607 125 454 q 175 917 171 819 q 286 925 218 925 m 511 1142 q 356 1070 476 1121 q 210 994 236 1019 q 174 1072 174 1029 q 210 1129 174 1101 q 296 1178 247 1157 q 403 1237 344 1200 q 494 1314 461 1274 q 535 1269 518 1299 q 551 1214 551 1240 q 511 1142 551 1167 z "},"Î":{"ha":422,"x_min":68,"x_max":518,"o":"m 286 925 q 400 851 400 925 q 394 807 400 844 q 376 696 388 769 q 354 544 364 622 l 319 276 q 303 93 303 157 q 308 11 303 46 q 182 -4 263 -4 q 99 17 124 -4 q 75 82 75 38 q 82 140 75 90 q 107 322 89 189 q 144 607 125 454 q 175 917 171 819 q 286 925 218 925 m 331 1267 q 419 1204 385 1231 q 486 1140 454 1178 q 518 1071 518 1101 q 492 1024 518 1049 q 426 989 467 999 q 371 1058 400 1028 q 325 1100 342 1089 l 308 1113 q 133 1000 165 1000 q 97 1010 110 1000 q 68 1053 85 1021 q 331 1267 189 1176 z "},"Ï":{"ha":422,"x_min":33,"x_max":582,"o":"m 286 925 q 400 851 400 925 q 394 807 400 844 q 376 696 388 769 q 354 544 364 622 l 319 276 q 303 93 303 157 q 308 11 303 46 q 182 -4 263 -4 q 99 17 124 -4 q 75 82 75 38 q 82 140 75 90 q 107 322 89 189 q 144 607 125 454 q 175 917 171 819 q 286 925 218 925 m 135 1004 q 60 1033 86 1004 q 33 1106 33 1063 q 69 1198 33 1157 q 164 1239 104 1239 q 238 1207 211 1239 q 265 1131 265 1175 q 231 1042 265 1081 q 135 1004 196 1004 m 451 1004 q 376 1033 403 1004 q 350 1106 350 1063 q 385 1198 350 1157 q 481 1239 421 1239 q 555 1207 528 1239 q 582 1131 582 1175 q 547 1042 582 1081 q 451 1004 513 1004 z "},"Ð":{"ha":990,"x_min":50,"x_max":967,"o":"m 125 74 q 188 421 158 226 q 53 415 96 421 q 50 464 50 443 q 111 561 50 554 q 207 564 153 564 q 235 918 231 757 q 475 935 326 935 q 967 561 967 935 q 931 348 967 450 q 828 165 894 246 q 658 35 763 83 q 428 -14 554 -14 q 125 74 224 -14 m 449 792 q 425 564 443 706 q 638 569 594 564 q 640 521 640 542 q 579 424 640 431 q 406 421 547 421 q 360 161 383 272 q 488 126 410 126 q 608 166 556 126 q 687 269 660 206 q 726 398 714 332 q 739 531 739 464 q 678 728 739 663 q 506 794 618 794 q 449 792 485 794 z "},"Ñ":{"ha":900,"x_min":75,"x_max":878,"o":"m 769 7 q 683 -4 729 -4 q 556 58 582 -4 q 451 327 521 136 q 344 606 382 518 q 289 88 289 185 q 294 13 289 60 q 189 -4 249 -4 q 100 16 125 -4 q 75 79 75 36 q 81 133 75 92 q 97 237 88 175 q 111 338 106 299 q 138 542 121 421 q 160 724 154 664 q 167 836 167 783 q 161 910 167 881 q 268 926 214 926 q 406 858 364 926 q 438 797 419 836 q 480 703 457 758 q 522 601 503 647 q 569 483 540 556 q 613 375 597 411 l 636 596 q 668 917 663 818 q 761 925 711 925 q 878 843 878 925 q 869 788 878 833 q 849 672 861 742 q 831 544 838 601 q 806 358 824 488 q 781 152 789 228 q 769 7 774 76 m 803 1157 q 741 1055 803 1100 q 617 1010 679 1010 q 532 1040 585 1010 q 457 1069 479 1069 q 361 1014 429 1069 q 318 1063 318 1032 q 381 1164 318 1118 q 504 1210 444 1210 q 589 1180 536 1210 q 665 1150 642 1150 q 760 1206 694 1150 q 789 1190 775 1203 q 803 1157 803 1176 z "},"Ò":{"ha":933,"x_min":61,"x_max":910,"o":"m 511 794 q 355 682 415 794 q 294 410 294 569 q 334 207 294 288 q 457 126 374 126 q 616 243 557 126 q 675 519 675 360 q 635 716 675 638 q 511 794 596 794 m 418 -14 q 156 88 250 -14 q 61 365 61 190 q 197 772 61 608 q 549 935 332 935 q 814 835 718 935 q 910 558 910 735 q 774 153 910 319 q 418 -14 638 -14 m 418 1317 q 502 1226 443 1274 q 603 1142 561 1179 q 646 1072 646 1104 q 635 1031 646 1047 q 597 994 625 1015 q 485 1074 556 1031 q 376 1147 414 1117 q 338 1211 338 1178 q 418 1317 338 1276 z "},"Ó":{"ha":933,"x_min":61,"x_max":910,"o":"m 511 794 q 355 682 415 794 q 294 410 294 569 q 334 207 294 288 q 457 126 374 126 q 616 243 557 126 q 675 519 675 360 q 635 716 675 638 q 511 794 596 794 m 418 -14 q 156 88 250 -14 q 61 365 61 190 q 197 772 61 608 q 549 935 332 935 q 814 835 718 935 q 910 558 910 735 q 774 153 910 319 q 418 -14 638 -14 m 772 1142 q 617 1070 738 1121 q 471 994 497 1019 q 435 1072 435 1029 q 472 1129 435 1101 q 557 1178 508 1157 q 664 1237 606 1200 q 756 1314 722 1274 q 796 1269 779 1299 q 813 1214 813 1240 q 772 1142 813 1167 z "},"Ô":{"ha":933,"x_min":61,"x_max":910,"o":"m 511 794 q 355 682 415 794 q 294 410 294 569 q 334 207 294 288 q 457 126 374 126 q 616 243 557 126 q 675 519 675 360 q 635 716 675 638 q 511 794 596 794 m 418 -14 q 156 88 250 -14 q 61 365 61 190 q 197 772 61 608 q 549 935 332 935 q 814 835 718 935 q 910 558 910 735 q 774 153 910 319 q 418 -14 638 -14 m 592 1267 q 681 1204 646 1231 q 747 1140 715 1178 q 779 1071 779 1101 q 753 1024 779 1049 q 688 989 728 999 q 632 1058 661 1028 q 586 1100 603 1089 l 569 1113 q 394 1000 425 1000 q 358 1010 371 1000 q 329 1053 346 1021 q 592 1267 450 1176 z "},"Õ":{"ha":933,"x_min":61,"x_max":910,"o":"m 511 794 q 355 682 415 794 q 294 410 294 569 q 334 207 294 288 q 457 126 374 126 q 616 243 557 126 q 675 519 675 360 q 635 716 675 638 q 511 794 596 794 m 418 -14 q 156 88 250 -14 q 61 365 61 190 q 197 772 61 608 q 549 935 332 935 q 814 835 718 935 q 910 558 910 735 q 774 153 910 319 q 418 -14 638 -14 m 811 1157 q 749 1055 811 1100 q 625 1010 688 1010 q 540 1040 593 1010 q 465 1069 488 1069 q 369 1014 438 1069 q 326 1063 326 1032 q 390 1164 326 1118 q 513 1210 453 1210 q 598 1180 544 1210 q 674 1150 651 1150 q 768 1206 703 1150 q 797 1190 783 1203 q 811 1157 811 1176 z "},"Ö":{"ha":933,"x_min":61,"x_max":910,"o":"m 511 794 q 355 682 415 794 q 294 410 294 569 q 334 207 294 288 q 457 126 374 126 q 616 243 557 126 q 675 519 675 360 q 635 716 675 638 q 511 794 596 794 m 418 -14 q 156 88 250 -14 q 61 365 61 190 q 197 772 61 608 q 549 935 332 935 q 814 835 718 935 q 910 558 910 735 q 774 153 910 319 q 418 -14 638 -14 m 396 1004 q 321 1033 347 1004 q 294 1106 294 1063 q 330 1198 294 1157 q 425 1239 365 1239 q 499 1207 472 1239 q 526 1131 526 1175 q 492 1042 526 1081 q 396 1004 457 1004 m 713 1004 q 638 1033 664 1004 q 611 1106 611 1063 q 647 1198 611 1157 q 742 1239 682 1239 q 816 1207 789 1239 q 843 1131 843 1175 q 808 1042 843 1081 q 713 1004 774 1004 z "},"×":{"ha":797,"x_min":81,"x_max":724,"o":"m 483 328 q 588 233 504 307 q 724 115 671 158 q 622 42 678 42 q 576 63 597 42 q 490 154 549 89 q 403 249 432 219 q 182 8 271 118 q 144 36 156 26 q 119 66 132 46 q 107 110 107 86 q 126 156 107 136 q 197 217 136 165 q 322 329 258 269 q 81 553 183 464 q 181 628 129 628 q 228 606 207 628 q 292 533 238 596 q 404 408 347 469 q 624 653 588 608 q 674 609 651 638 q 697 551 697 581 q 676 506 697 526 q 583 419 651 479 q 483 328 515 360 z "},"Ø":{"ha":933,"x_min":61,"x_max":910,"o":"m 418 -14 q 268 11 335 -14 l 194 -117 q 139 -100 161 -115 q 117 -60 117 -85 q 133 -15 117 -40 l 183 61 q 61 365 61 163 q 197 772 61 608 q 549 936 332 936 q 726 899 647 936 q 771 973 743 925 q 807 1035 799 1021 q 863 1018 840 1033 q 885 978 885 1003 q 868 933 885 961 l 807 842 q 910 558 910 742 q 774 153 910 319 q 418 -14 638 -14 m 511 794 q 355 682 415 794 q 294 410 294 569 q 313 261 294 325 l 622 736 q 511 794 579 794 m 675 519 q 665 625 675 578 l 365 164 q 457 126 403 126 q 616 243 557 126 q 675 519 675 360 z "},"Ù":{"ha":922,"x_min":99,"x_max":900,"o":"m 614 381 q 675 917 669 800 q 786 925 718 925 q 900 851 900 925 q 894 807 900 844 q 876 696 888 769 q 854 544 864 622 l 821 276 q 804 93 804 157 q 810 11 804 46 q 682 -4 760 -4 q 596 19 617 -4 q 575 90 575 42 q 577 107 575 94 q 582 142 579 119 q 588 183 585 164 q 449 38 528 89 q 293 -14 369 -14 q 149 53 200 -14 q 99 218 99 119 q 133 513 99 251 q 175 915 168 774 q 286 925 218 925 q 400 851 400 925 q 394 814 400 847 q 378 713 389 781 q 360 585 368 646 q 318 268 318 311 q 400 142 318 142 q 517 210 453 142 q 614 381 581 278 m 432 1317 q 516 1226 457 1274 q 617 1142 575 1179 q 660 1072 660 1104 q 649 1031 660 1047 q 611 994 639 1015 q 499 1074 569 1031 q 390 1147 428 1117 q 351 1211 351 1178 q 432 1317 351 1276 z "},"Ú":{"ha":922,"x_min":99,"x_max":900,"o":"m 614 381 q 675 917 669 800 q 786 925 718 925 q 900 851 900 925 q 894 807 900 844 q 876 696 888 769 q 854 544 864 622 l 821 276 q 804 93 804 157 q 810 11 804 46 q 682 -4 760 -4 q 596 19 617 -4 q 575 90 575 42 q 577 107 575 94 q 582 142 579 119 q 588 183 585 164 q 449 38 528 89 q 293 -14 369 -14 q 149 53 200 -14 q 99 218 99 119 q 133 513 99 251 q 175 915 168 774 q 286 925 218 925 q 400 851 400 925 q 394 814 400 847 q 378 713 389 781 q 360 585 368 646 q 318 268 318 311 q 400 142 318 142 q 517 210 453 142 q 614 381 581 278 m 786 1142 q 631 1070 751 1121 q 485 994 511 1019 q 449 1072 449 1029 q 485 1129 449 1101 q 571 1178 522 1157 q 678 1237 619 1200 q 769 1314 736 1274 q 810 1269 793 1299 q 826 1214 826 1240 q 786 1142 826 1167 z "},"Û":{"ha":922,"x_min":99,"x_max":900,"o":"m 614 381 q 675 917 669 800 q 786 925 718 925 q 900 851 900 925 q 894 807 900 844 q 876 696 888 769 q 854 544 864 622 l 821 276 q 804 93 804 157 q 810 11 804 46 q 682 -4 760 -4 q 596 19 617 -4 q 575 90 575 42 q 577 107 575 94 q 582 142 579 119 q 588 183 585 164 q 449 38 528 89 q 293 -14 369 -14 q 149 53 200 -14 q 99 218 99 119 q 133 513 99 251 q 175 915 168 774 q 286 925 218 925 q 400 851 400 925 q 394 814 400 847 q 378 713 389 781 q 360 585 368 646 q 318 268 318 311 q 400 142 318 142 q 517 210 453 142 q 614 381 581 278 m 606 1267 q 694 1204 660 1231 q 761 1140 729 1178 q 793 1071 793 1101 q 767 1024 793 1049 q 701 989 742 999 q 646 1058 675 1028 q 600 1100 617 1089 l 583 1113 q 408 1000 439 1000 q 372 1010 385 1000 q 343 1053 360 1021 q 606 1267 464 1176 z "},"Ü":{"ha":922,"x_min":99,"x_max":900,"o":"m 614 381 q 675 917 669 800 q 786 925 718 925 q 900 851 900 925 q 894 807 900 844 q 876 696 888 769 q 854 544 864 622 l 821 276 q 804 93 804 157 q 810 11 804 46 q 682 -4 760 -4 q 596 19 617 -4 q 575 90 575 42 q 577 107 575 94 q 582 142 579 119 q 588 183 585 164 q 449 38 528 89 q 293 -14 369 -14 q 149 53 200 -14 q 99 218 99 119 q 133 513 99 251 q 175 915 168 774 q 286 925 218 925 q 400 851 400 925 q 394 814 400 847 q 378 713 389 781 q 360 585 368 646 q 318 268 318 311 q 400 142 318 142 q 517 210 453 142 q 614 381 581 278 m 410 1004 q 335 1033 361 1004 q 308 1106 308 1063 q 344 1198 308 1157 q 439 1239 379 1239 q 513 1207 486 1239 q 540 1131 540 1175 q 506 1042 540 1081 q 410 1004 471 1004 m 726 1004 q 651 1033 678 1004 q 625 1106 625 1063 q 660 1198 625 1157 q 756 1239 696 1239 q 830 1207 803 1239 q 857 1131 857 1175 q 822 1042 857 1081 q 726 1004 788 1004 z "},"Ý":{"ha":707,"x_min":63,"x_max":785,"o":"m 261 392 q 63 846 140 772 q 142 910 110 892 q 214 928 175 928 q 272 915 249 928 q 308 863 294 901 q 419 540 368 707 q 532 751 469 618 q 600 933 594 885 q 785 846 785 933 q 478 392 785 775 l 464 276 q 447 93 447 133 q 453 11 447 46 q 326 -4 407 -4 q 244 17 268 -4 q 219 82 219 38 q 224 120 219 89 q 239 231 228 151 q 261 392 250 311 m 711 1142 q 556 1070 676 1121 q 410 994 436 1019 q 374 1072 374 1029 q 410 1129 374 1101 q 496 1178 447 1157 q 603 1237 544 1200 q 694 1314 661 1274 q 735 1269 718 1299 q 751 1214 751 1240 q 711 1142 751 1167 z "},"Þ":{"ha":744,"x_min":64,"x_max":731,"o":"m 275 925 q 389 851 389 925 q 379 792 389 847 q 731 535 731 789 q 641 266 731 365 q 439 167 551 167 q 300 222 347 167 q 292 93 292 158 q 297 11 292 46 q 171 -4 251 -4 q 88 17 113 -4 q 64 82 64 38 q 71 140 64 90 q 96 322 78 189 q 133 607 114 454 q 164 917 160 819 q 275 925 207 925 m 415 653 q 357 647 399 653 q 343 544 350 608 l 315 335 q 396 307 364 307 q 483 366 450 307 q 517 519 517 425 q 490 624 517 594 q 415 653 464 653 z "},"ß":{"ha":796,"x_min":-40,"x_max":746,"o":"m 397 197 q 422 140 399 160 q 474 119 444 119 q 524 144 504 119 q 544 203 544 168 q 513 270 544 238 q 442 325 481 303 q 371 385 403 347 q 339 467 339 422 q 364 538 339 504 q 418 594 389 571 q 472 655 447 617 q 497 740 497 693 q 436 803 497 803 q 359 771 396 803 q 315 675 322 739 q 221 -47 249 75 q 168 -144 206 -110 q 83 -178 131 -178 q -40 -101 7 -178 q 35 89 0 -74 q 113 646 71 251 q 160 778 121 719 q 256 869 199 836 q 374 918 313 901 q 494 935 435 935 q 658 892 604 935 q 713 785 713 850 q 694 699 713 738 q 650 637 676 661 q 597 592 624 613 q 553 550 571 572 q 535 503 535 528 q 556 452 535 478 q 609 401 578 426 q 672 348 640 376 q 724 278 703 319 q 746 190 746 238 q 667 45 746 104 q 474 -14 588 -14 q 345 22 400 -14 q 290 111 290 57 q 397 197 290 186 z "},"à":{"ha":754,"x_min":49,"x_max":696,"o":"m 443 263 l 478 497 q 393 547 436 547 q 324 503 353 547 q 281 399 294 460 q 268 272 268 339 q 283 156 268 203 q 328 110 299 110 q 388 152 354 110 q 443 263 421 194 m 433 144 q 339 27 394 68 q 224 -14 283 -14 q 97 49 146 -14 q 49 233 49 113 q 89 439 49 342 q 216 603 129 536 q 419 671 303 671 q 696 579 561 671 q 633 172 633 285 q 678 92 633 119 q 539 -14 642 -14 q 457 17 482 -14 q 432 110 432 47 q 433 144 432 132 m 306 1049 q 390 958 331 1006 q 491 874 449 911 q 533 804 533 836 q 523 763 533 779 q 485 726 513 747 q 372 806 443 763 q 263 879 301 849 q 225 943 225 910 q 306 1049 225 1008 z "},"á":{"ha":758,"x_min":49,"x_max":700,"o":"m 443 263 l 478 497 q 393 547 436 547 q 324 503 353 547 q 281 399 294 460 q 268 272 268 339 q 283 156 268 203 q 328 110 299 110 q 388 152 354 110 q 443 263 421 194 m 433 144 q 339 27 394 68 q 224 -14 283 -14 q 97 49 146 -14 q 49 233 49 113 q 89 439 49 342 q 216 603 129 536 q 419 671 303 671 q 696 579 561 671 q 633 172 633 285 q 678 92 633 119 q 539 -14 642 -14 q 457 17 482 -14 q 432 110 432 47 q 433 144 432 132 m 660 874 q 505 802 625 853 q 358 726 385 751 q 322 804 322 761 q 359 861 322 833 q 444 910 396 889 q 551 969 493 932 q 643 1046 610 1006 q 683 1001 667 1031 q 700 946 700 972 q 660 874 700 899 z "},"â":{"ha":754,"x_min":49,"x_max":696,"o":"m 443 263 l 478 497 q 393 547 436 547 q 324 503 353 547 q 281 399 294 460 q 268 272 268 339 q 283 156 268 203 q 328 110 299 110 q 388 152 354 110 q 443 263 421 194 m 433 144 q 339 27 394 68 q 224 -14 283 -14 q 97 49 146 -14 q 49 233 49 113 q 89 439 49 342 q 216 603 129 536 q 419 671 303 671 q 696 579 561 671 q 633 172 633 285 q 678 92 633 119 q 539 -14 642 -14 q 457 17 482 -14 q 432 110 432 47 q 433 144 432 132 m 479 999 q 568 936 533 963 q 635 872 603 910 q 667 803 667 833 q 641 756 667 781 q 575 721 615 731 q 519 791 549 760 q 474 833 490 822 l 457 844 q 282 732 314 732 q 246 742 258 732 q 217 785 233 753 q 479 999 338 908 z "},"ã":{"ha":757,"x_min":49,"x_max":699,"o":"m 443 263 l 478 497 q 393 547 436 547 q 324 503 353 547 q 281 399 294 460 q 268 272 268 339 q 283 156 268 203 q 328 110 299 110 q 388 152 354 110 q 443 263 421 194 m 433 144 q 339 27 394 68 q 224 -14 283 -14 q 97 49 146 -14 q 49 233 49 113 q 89 439 49 342 q 216 603 129 536 q 419 671 303 671 q 696 579 561 671 q 633 172 633 285 q 678 92 633 119 q 539 -14 642 -14 q 457 17 482 -14 q 432 110 432 47 q 433 144 432 132 m 699 889 q 637 787 699 832 q 513 742 575 742 q 428 772 481 742 q 353 801 375 801 q 257 746 325 801 q 214 794 214 764 q 277 896 214 850 q 400 942 340 942 q 485 912 431 942 q 561 882 539 882 q 656 938 590 882 q 685 922 671 935 q 699 889 699 908 z "},"ä":{"ha":789,"x_min":49,"x_max":731,"o":"m 443 263 l 478 497 q 393 547 436 547 q 324 503 353 547 q 281 399 294 460 q 268 272 268 339 q 283 156 268 203 q 328 110 299 110 q 388 152 354 110 q 443 263 421 194 m 433 144 q 339 27 394 68 q 224 -14 283 -14 q 97 49 146 -14 q 49 233 49 113 q 89 439 49 342 q 216 603 129 536 q 419 671 303 671 q 696 579 561 671 q 633 172 633 285 q 678 92 633 119 q 539 -14 642 -14 q 457 17 482 -14 q 432 110 432 47 q 433 144 432 132 m 283 736 q 208 765 235 736 q 182 838 182 794 q 217 930 182 889 q 313 971 253 971 q 387 939 360 971 q 414 863 414 907 q 379 774 414 813 q 283 736 344 736 m 600 736 q 525 765 551 736 q 499 838 499 794 q 534 930 499 889 q 629 971 569 971 q 703 939 676 971 q 731 863 731 907 q 696 774 731 813 q 600 736 661 736 z "},"å":{"ha":754,"x_min":49,"x_max":696,"o":"m 443 263 l 478 497 q 393 547 436 547 q 324 503 353 547 q 281 399 294 460 q 268 272 268 339 q 283 156 268 203 q 328 110 299 110 q 388 152 354 110 q 443 263 421 194 m 433 144 q 339 27 394 68 q 224 -14 283 -14 q 97 49 146 -14 q 49 233 49 113 q 89 439 49 342 q 216 603 129 536 q 419 671 303 671 q 696 579 561 671 q 633 172 633 285 q 678 92 633 119 q 539 -14 642 -14 q 457 17 482 -14 q 432 110 432 47 q 433 144 432 132 m 460 819 q 520 851 497 819 q 543 922 543 882 q 528 982 543 960 q 483 1004 513 1004 q 422 973 446 1004 q 399 901 399 942 q 415 842 399 865 q 460 819 431 819 m 450 750 q 354 787 390 750 q 318 885 318 824 q 367 1017 318 960 q 493 1074 417 1074 q 588 1038 553 1074 q 622 940 622 1001 q 576 806 622 861 q 450 750 529 750 z "},"æ":{"ha":1046,"x_min":49,"x_max":1018,"o":"m 907 182 q 979 99 979 149 q 910 18 979 50 q 749 -14 842 -14 q 569 27 650 -14 q 460 154 489 68 q 224 -14 364 -14 q 97 49 146 -14 q 49 233 49 113 q 89 439 49 342 q 216 603 129 536 q 419 671 303 671 q 618 606 528 671 q 821 671 715 671 q 960 625 903 671 q 1018 497 1018 579 q 930 300 1018 371 q 707 229 842 229 q 665 232 690 229 q 782 111 674 111 q 907 182 861 111 m 443 263 l 446 271 q 513 494 451 397 q 400 549 449 549 q 302 469 336 549 q 268 272 268 390 q 283 156 268 203 q 328 110 299 110 q 388 152 354 110 q 443 263 421 194 m 789 481 q 778 529 789 510 q 749 549 768 549 q 693 492 717 549 q 665 344 669 435 q 702 349 688 346 q 740 363 717 351 q 776 405 764 375 q 789 481 789 435 z "},"ç":{"ha":635,"x_min":35,"x_max":621,"o":"m 478 436 q 448 517 474 490 q 394 543 422 543 q 292 467 331 543 q 253 288 253 392 q 284 155 253 199 q 364 111 315 111 q 425 135 393 111 q 478 199 457 160 q 542 162 522 182 q 563 108 563 142 q 508 23 563 58 q 353 -14 454 -12 q 346 -44 346 -31 q 361 -70 346 -57 q 394 -94 376 -83 q 428 -128 413 -106 q 443 -182 443 -151 q 369 -302 443 -254 q 214 -350 294 -350 q 129 -293 129 -350 q 171 -212 129 -258 q 215 -231 186 -231 q 251 -216 238 -231 q 264 -179 264 -201 q 240 -131 264 -158 q 215 -83 215 -103 q 240 -3 215 -50 q 90 83 144 19 q 35 256 35 147 q 70 439 35 357 q 163 571 106 521 q 287 647 219 621 q 424 674 354 674 q 506 663 464 674 q 585 622 549 651 q 621 549 621 592 q 580 474 621 507 q 478 436 539 442 z "},"è":{"ha":649,"x_min":35,"x_max":621,"o":"m 281 336 q 368 383 336 336 q 400 490 400 429 q 386 532 400 515 q 354 549 372 549 q 294 491 321 549 q 260 338 267 433 q 281 336 267 336 m 488 186 q 540 147 518 171 q 561 100 561 124 q 490 19 561 51 q 325 -14 418 -14 q 120 45 206 -14 q 35 228 35 104 q 147 538 35 403 q 432 674 258 674 q 566 629 511 674 q 621 507 621 585 q 528 315 621 383 q 296 246 436 246 q 254 249 279 246 q 364 111 254 111 q 488 186 436 111 m 242 1049 q 326 958 267 1006 q 427 874 385 911 q 469 804 469 836 q 459 763 469 779 q 421 726 449 747 q 308 806 379 763 q 199 879 238 849 q 161 943 161 910 q 242 1049 161 1008 z "},"é":{"ha":664,"x_min":35,"x_max":636,"o":"m 281 336 q 368 383 336 336 q 400 490 400 429 q 386 532 400 515 q 354 549 372 549 q 294 491 321 549 q 260 338 267 433 q 281 336 267 336 m 488 186 q 540 147 518 171 q 561 100 561 124 q 490 19 561 51 q 325 -14 418 -14 q 120 45 206 -14 q 35 228 35 104 q 147 538 35 403 q 432 674 258 674 q 566 629 511 674 q 621 507 621 585 q 528 315 621 383 q 296 246 436 246 q 254 249 279 246 q 364 111 254 111 q 488 186 436 111 m 596 874 q 441 802 561 853 q 294 726 321 751 q 258 804 258 761 q 295 861 258 833 q 381 910 332 889 q 488 969 429 932 q 579 1046 546 1006 q 619 1001 603 1031 q 636 946 636 972 q 596 874 636 899 z "},"ê":{"ha":649,"x_min":35,"x_max":621,"o":"m 281 336 q 368 383 336 336 q 400 490 400 429 q 386 532 400 515 q 354 549 372 549 q 294 491 321 549 q 260 338 267 433 q 281 336 267 336 m 488 186 q 540 147 518 171 q 561 100 561 124 q 490 19 561 51 q 325 -14 418 -14 q 120 45 206 -14 q 35 228 35 104 q 147 538 35 403 q 432 674 258 674 q 566 629 511 674 q 621 507 621 585 q 528 315 621 383 q 296 246 436 246 q 254 249 279 246 q 364 111 254 111 q 488 186 436 111 m 415 999 q 504 936 469 963 q 571 872 539 910 q 603 803 603 833 q 577 756 603 781 q 511 721 551 731 q 456 791 485 760 q 410 833 426 822 l 393 844 q 218 732 250 732 q 182 742 194 732 q 153 785 169 753 q 415 999 274 908 z "},"ë":{"ha":694,"x_min":35,"x_max":667,"o":"m 281 336 q 368 383 336 336 q 400 490 400 429 q 386 532 400 515 q 354 549 372 549 q 294 491 321 549 q 260 338 267 433 q 281 336 267 336 m 488 186 q 540 147 518 171 q 561 100 561 124 q 490 19 561 51 q 325 -14 418 -14 q 120 45 206 -14 q 35 228 35 104 q 147 538 35 403 q 432 674 258 674 q 566 629 511 674 q 621 507 621 585 q 528 315 621 383 q 296 246 436 246 q 254 249 279 246 q 364 111 254 111 q 488 186 436 111 m 219 736 q 144 765 171 736 q 118 838 118 794 q 153 930 118 889 q 249 971 189 971 q 323 939 296 971 q 350 863 350 907 q 315 774 350 813 q 219 736 281 736 m 536 736 q 461 765 488 736 q 435 838 435 794 q 470 930 435 889 q 565 971 506 971 q 640 939 613 971 q 667 863 667 907 q 632 774 667 813 q 536 736 597 736 z "},"ì":{"ha":393,"x_min":36,"x_max":344,"o":"m 224 674 q 329 549 329 674 q 299 351 329 493 q 268 176 268 210 q 313 93 268 121 q 255 13 293 40 q 171 -14 217 -14 q 53 113 53 -14 q 84 318 53 178 q 115 493 115 458 q 72 558 115 553 q 122 640 79 607 q 224 674 164 674 m 117 1049 q 201 958 142 1006 q 302 874 260 911 q 344 804 344 836 q 334 763 344 779 q 296 726 324 747 q 183 806 254 763 q 74 879 113 849 q 36 943 36 910 q 117 1049 36 1008 z "},"í":{"ha":393,"x_min":53,"x_max":442,"o":"m 224 674 q 329 549 329 674 q 299 351 329 493 q 268 176 268 210 q 313 93 268 121 q 255 13 293 40 q 171 -14 217 -14 q 53 113 53 -14 q 84 318 53 178 q 115 493 115 458 q 72 558 115 553 q 122 640 79 607 q 224 674 164 674 m 401 874 q 247 802 367 853 q 100 726 126 751 q 64 804 64 761 q 101 861 64 833 q 186 910 138 889 q 293 969 235 932 q 385 1046 351 1006 q 425 1001 408 1031 q 442 946 442 972 q 401 874 442 899 z "},"î":{"ha":393,"x_min":-21,"x_max":429,"o":"m 224 674 q 329 549 329 674 q 299 351 329 493 q 268 176 268 210 q 313 93 268 121 q 255 13 293 40 q 171 -14 217 -14 q 53 113 53 -14 q 84 318 53 178 q 115 493 115 458 q 72 558 115 553 q 122 640 79 607 q 224 674 164 674 m 242 999 q 331 936 296 963 q 397 872 365 910 q 429 803 429 833 q 403 756 429 781 q 338 721 378 731 q 282 791 311 760 q 236 833 253 822 l 219 844 q 44 732 76 732 q 8 742 21 732 q -21 785 -4 753 q 242 999 100 908 z "},"ï":{"ha":393,"x_min":-47,"x_max":501,"o":"m 224 674 q 329 549 329 674 q 299 351 329 493 q 268 176 268 210 q 313 93 268 121 q 255 13 293 40 q 171 -14 217 -14 q 53 113 53 -14 q 84 318 53 178 q 115 493 115 458 q 72 558 115 553 q 122 640 79 607 q 224 674 164 674 m 54 736 q -21 765 6 736 q -47 838 -47 794 q -12 930 -47 889 q 83 971 24 971 q 158 939 131 971 q 185 863 185 907 q 150 774 185 813 q 54 736 115 736 m 371 736 q 296 765 322 736 q 269 838 269 794 q 305 930 269 889 q 400 971 340 971 q 474 939 447 971 q 501 863 501 907 q 467 774 501 813 q 371 736 432 736 z "},"ð":{"ha":785,"x_min":44,"x_max":696,"o":"m 308 692 q 267 756 267 724 q 304 813 267 788 q 349 840 317 821 q 183 875 283 875 q 182 900 182 885 q 203 953 182 938 q 268 969 224 969 q 467 918 375 969 q 597 1018 514 951 q 633 950 633 988 q 599 897 633 922 q 574 879 592 893 q 544 858 556 865 q 656 687 617 789 q 696 467 696 585 q 683 335 696 400 q 640 206 669 269 q 569 94 611 143 q 462 16 526 46 q 321 -14 397 -14 q 119 60 193 -14 q 44 261 44 133 q 81 439 44 347 q 195 599 118 531 q 367 667 272 667 q 496 622 457 667 q 426 776 471 721 l 414 768 q 308 692 406 763 m 338 119 q 428 165 393 119 q 476 263 464 210 q 488 375 488 317 q 463 496 488 451 q 392 540 439 540 q 319 515 350 540 q 272 447 288 489 q 248 365 256 406 q 240 282 240 324 q 265 165 240 210 q 338 119 290 119 z "},"ñ":{"ha":754,"x_min":58,"x_max":696,"o":"m 296 351 q 276 100 276 188 q 282 21 276 68 q 165 -3 229 -3 q 58 75 58 -3 q 86 263 58 82 q 114 488 114 444 q 71 558 114 549 q 120 642 79 611 q 211 674 161 674 q 329 558 329 674 q 328 548 329 556 q 328 536 328 540 q 428 636 369 601 q 542 671 488 671 q 656 626 615 671 q 696 508 696 581 q 667 345 696 483 q 639 175 639 207 q 686 92 639 119 q 629 14 669 42 q 542 -14 589 -14 q 457 17 492 -14 q 422 103 422 49 q 449 281 422 147 q 475 467 475 415 q 429 544 475 544 q 355 486 396 544 q 296 351 314 428 m 689 889 q 627 787 689 832 q 503 742 565 742 q 418 772 471 742 q 343 801 365 801 q 247 746 315 801 q 204 794 204 764 q 267 896 204 850 q 390 942 331 942 q 475 912 422 942 q 551 882 528 882 q 646 938 581 882 q 675 922 661 935 q 689 889 689 908 z "},"ò":{"ha":718,"x_min":35,"x_max":683,"o":"m 371 547 q 291 467 322 547 q 260 286 260 388 q 282 160 260 210 q 344 111 304 111 q 424 190 393 111 q 456 368 456 268 q 434 497 456 447 q 371 547 413 547 m 306 -14 q 108 63 181 -14 q 35 265 35 140 q 140 554 35 436 q 407 672 244 672 q 610 601 536 672 q 683 404 683 529 q 574 110 683 233 q 306 -14 465 -14 m 292 1049 q 376 958 317 1006 q 477 874 435 911 q 519 804 519 836 q 509 763 519 779 q 471 726 499 747 q 358 806 429 763 q 249 879 288 849 q 211 943 211 910 q 292 1049 211 1008 z "},"ó":{"ha":721,"x_min":35,"x_max":686,"o":"m 371 547 q 291 467 322 547 q 260 286 260 388 q 282 160 260 210 q 344 111 304 111 q 424 190 393 111 q 456 368 456 268 q 434 497 456 447 q 371 547 413 547 m 306 -14 q 108 63 181 -14 q 35 265 35 140 q 140 554 35 436 q 407 672 244 672 q 610 601 536 672 q 683 404 683 529 q 574 110 683 233 q 306 -14 465 -14 m 646 874 q 491 802 611 853 q 344 726 371 751 q 308 804 308 761 q 345 861 308 833 q 431 910 382 889 q 538 969 479 932 q 629 1046 596 1006 q 669 1001 653 1031 q 686 946 686 972 q 646 874 686 899 z "},"ô":{"ha":718,"x_min":35,"x_max":683,"o":"m 371 547 q 291 467 322 547 q 260 286 260 388 q 282 160 260 210 q 344 111 304 111 q 424 190 393 111 q 456 368 456 268 q 434 497 456 447 q 371 547 413 547 m 306 -14 q 108 63 181 -14 q 35 265 35 140 q 140 554 35 436 q 407 672 244 672 q 610 601 536 672 q 683 404 683 529 q 574 110 683 233 q 306 -14 465 -14 m 465 999 q 554 936 519 963 q 621 872 589 910 q 653 803 653 833 q 627 756 653 781 q 561 721 601 731 q 506 791 535 760 q 460 833 476 822 l 443 844 q 268 732 300 732 q 232 742 244 732 q 203 785 219 753 q 465 999 324 908 z "},"õ":{"ha":719,"x_min":35,"x_max":685,"o":"m 371 547 q 291 467 322 547 q 260 286 260 388 q 282 160 260 210 q 344 111 304 111 q 424 190 393 111 q 456 368 456 268 q 434 497 456 447 q 371 547 413 547 m 306 -14 q 108 63 181 -14 q 35 265 35 140 q 140 554 35 436 q 407 672 244 672 q 610 601 536 672 q 683 404 683 529 q 574 110 683 233 q 306 -14 465 -14 m 685 889 q 623 787 685 832 q 499 742 561 742 q 414 772 467 742 q 339 801 361 801 q 243 746 311 801 q 200 794 200 764 q 263 896 200 850 q 386 942 326 942 q 471 912 417 942 q 547 882 525 882 q 642 938 576 882 q 671 922 657 935 q 685 889 685 908 z "},"ö":{"ha":751,"x_min":35,"x_max":717,"o":"m 371 547 q 291 467 322 547 q 260 286 260 388 q 282 160 260 210 q 344 111 304 111 q 424 190 393 111 q 456 368 456 268 q 434 497 456 447 q 371 547 413 547 m 306 -14 q 108 63 181 -14 q 35 265 35 140 q 140 554 35 436 q 407 672 244 672 q 610 601 536 672 q 683 404 683 529 q 574 110 683 233 q 306 -14 465 -14 m 269 736 q 194 765 221 736 q 168 838 168 794 q 203 930 168 889 q 299 971 239 971 q 373 939 346 971 q 400 863 400 907 q 365 774 400 813 q 269 736 331 736 m 586 736 q 511 765 538 736 q 485 838 485 794 q 520 930 485 889 q 615 971 556 971 q 690 939 663 971 q 717 863 717 907 q 682 774 717 813 q 586 736 647 736 z "},"÷":{"ha":797,"x_min":86,"x_max":707,"o":"m 463 528 q 448 514 463 528 q 390 499 433 499 q 317 528 347 499 q 286 607 286 558 q 317 683 286 651 q 390 714 347 714 q 462 683 432 714 q 492 607 492 651 q 463 528 492 558 m 707 361 q 688 302 707 326 q 636 278 668 278 q 523 285 613 278 q 392 293 433 293 q 92 278 235 293 q 86 336 86 307 q 103 394 86 368 q 157 419 121 419 q 251 413 163 419 q 403 406 339 406 q 699 419 603 406 q 707 361 707 403 m 463 22 q 448 7 463 22 q 390 -8 433 -8 q 317 22 347 -8 q 286 100 286 53 q 317 176 286 144 q 390 207 347 207 q 462 176 432 207 q 492 100 492 144 q 463 22 492 51 z "},"ø":{"ha":718,"x_min":35,"x_max":683,"o":"m 306 -14 q 211 0 253 -14 l 143 -119 q 88 -103 110 -118 q 65 -62 65 -87 q 82 -18 65 -43 l 124 47 q 35 265 35 124 q 140 554 35 436 q 407 672 244 672 q 518 654 464 672 q 588 774 560 724 q 643 757 621 772 q 665 717 665 742 q 649 672 665 700 l 604 606 q 683 404 683 531 q 574 110 683 233 q 306 -14 465 -14 m 371 547 q 291 467 322 547 q 260 286 260 388 l 260 256 l 426 511 q 371 547 404 547 m 344 111 q 424 190 393 111 q 456 368 456 268 l 456 378 l 297 135 q 344 111 317 111 z "},"ù":{"ha":761,"x_min":65,"x_max":706,"o":"m 446 144 q 349 33 410 79 q 219 -14 289 -14 q 106 31 146 -14 q 65 146 65 75 q 93 308 65 176 q 121 486 121 440 q 78 558 121 544 q 127 643 86 613 q 218 674 168 674 q 339 546 339 674 q 312 372 339 497 q 283 189 285 247 q 328 113 283 113 q 399 168 360 113 q 456 301 438 224 q 500 644 493 524 q 597 664 556 664 q 706 564 706 664 q 676 365 706 533 q 646 172 646 197 q 690 92 646 118 q 643 18 678 50 q 554 -14 608 -14 q 467 19 490 -14 q 444 108 444 51 q 446 144 444 132 m 318 1049 q 402 958 343 1006 q 503 874 461 911 q 546 804 546 836 q 535 763 546 779 q 497 726 525 747 q 385 806 456 763 q 276 879 314 849 q 238 943 238 910 q 318 1049 238 1008 z "},"ú":{"ha":768,"x_min":65,"x_max":713,"o":"m 446 144 q 349 33 410 79 q 219 -14 289 -14 q 106 31 146 -14 q 65 146 65 75 q 93 308 65 176 q 121 486 121 440 q 78 558 121 544 q 127 643 86 613 q 218 674 168 674 q 339 546 339 674 q 312 372 339 497 q 283 189 285 247 q 328 113 283 113 q 399 168 360 113 q 456 301 438 224 q 500 644 493 524 q 597 664 556 664 q 706 564 706 664 q 676 365 706 533 q 646 172 646 197 q 690 92 646 118 q 643 18 678 50 q 554 -14 608 -14 q 467 19 490 -14 q 444 108 444 51 q 446 144 444 132 m 672 874 q 517 802 638 853 q 371 726 397 751 q 335 804 335 761 q 372 861 335 833 q 457 910 408 889 q 564 969 506 932 q 656 1046 622 1006 q 696 1001 679 1031 q 713 946 713 972 q 672 874 713 899 z "},"û":{"ha":761,"x_min":65,"x_max":706,"o":"m 446 144 q 349 33 410 79 q 219 -14 289 -14 q 106 31 146 -14 q 65 146 65 75 q 93 308 65 176 q 121 486 121 440 q 78 558 121 544 q 127 643 86 613 q 218 674 168 674 q 339 546 339 674 q 312 372 339 497 q 283 189 285 247 q 328 113 283 113 q 399 168 360 113 q 456 301 438 224 q 500 644 493 524 q 597 664 556 664 q 706 564 706 664 q 676 365 706 533 q 646 172 646 197 q 690 92 646 118 q 643 18 678 50 q 554 -14 608 -14 q 467 19 490 -14 q 444 108 444 51 q 446 144 444 132 m 492 999 q 581 936 546 963 q 647 872 615 910 q 679 803 679 833 q 653 756 679 781 q 588 721 628 731 q 532 791 561 760 q 486 833 503 822 l 469 844 q 294 732 326 732 q 258 742 271 732 q 229 785 246 753 q 492 999 350 908 z "},"ü":{"ha":799,"x_min":65,"x_max":743,"o":"m 446 144 q 349 33 410 79 q 219 -14 289 -14 q 106 31 146 -14 q 65 146 65 75 q 93 308 65 176 q 121 486 121 440 q 78 558 121 544 q 127 643 86 613 q 218 674 168 674 q 339 546 339 674 q 312 372 339 497 q 283 189 285 247 q 328 113 283 113 q 399 168 360 113 q 456 301 438 224 q 500 644 493 524 q 597 664 556 664 q 706 564 706 664 q 676 365 706 533 q 646 172 646 197 q 690 92 646 118 q 643 18 678 50 q 554 -14 608 -14 q 467 19 490 -14 q 444 108 444 51 q 446 144 444 132 m 296 736 q 221 765 247 736 q 194 838 194 794 q 230 930 194 889 q 325 971 265 971 q 399 939 372 971 q 426 863 426 907 q 392 774 426 813 q 296 736 357 736 m 613 736 q 538 765 564 736 q 511 838 511 794 q 547 930 511 889 q 642 971 582 971 q 716 939 689 971 q 743 863 743 907 q 708 774 743 813 q 613 736 674 736 z "},"ý":{"ha":674,"x_min":-250,"x_max":653,"o":"m 346 156 q 442 542 433 379 q 421 638 442 594 q 533 672 469 672 q 653 563 653 672 q 578 294 653 461 q 414 -6 504 128 q 341 -110 369 -72 q 268 -194 313 -149 q 182 -264 224 -240 q 82 -303 140 -287 q -47 -319 24 -319 q -194 -290 -139 -319 q -250 -217 -250 -261 q -153 -108 -250 -158 q -106 -169 -143 -144 q -29 -194 -68 -194 q 215 4 100 -194 q 142 302 213 85 q 4 572 72 519 q 79 644 36 617 q 161 671 122 671 q 233 641 201 671 q 279 551 264 611 q 346 156 317 400 m 572 874 q 417 802 538 853 q 271 726 297 751 q 235 804 235 761 q 272 861 235 833 q 357 910 308 889 q 464 969 406 932 q 556 1046 522 1006 q 596 1001 579 1031 q 613 946 613 972 q 572 874 613 899 z "},"þ":{"ha":743,"x_min":18,"x_max":708,"o":"m 285 1031 q 390 906 390 1031 q 344 558 390 844 q 526 672 422 672 q 658 611 607 672 q 708 422 708 550 q 617 110 708 235 q 408 -14 525 -14 q 261 49 325 -14 q 233 -157 233 -106 q 278 -244 233 -217 q 131 -351 239 -351 q 18 -217 18 -351 q 97 322 18 -150 q 176 850 176 794 q 133 915 176 910 q 183 997 140 964 q 285 1031 225 1031 m 319 408 l 276 153 q 363 110 315 110 q 451 185 414 110 q 489 390 489 261 q 470 504 489 461 q 419 547 451 547 q 369 509 397 547 q 319 408 340 471 z "},"ÿ":{"ha":674,"x_min":-250,"x_max":653,"o":"m 346 156 q 442 542 433 379 q 421 638 442 594 q 533 672 469 672 q 653 563 653 672 q 578 294 653 461 q 414 -6 504 128 q 341 -110 369 -72 q 268 -194 313 -149 q 182 -264 224 -240 q 82 -303 140 -287 q -47 -319 24 -319 q -194 -290 -139 -319 q -250 -217 -250 -261 q -153 -108 -250 -158 q -106 -169 -143 -144 q -29 -194 -68 -194 q 215 4 100 -194 q 142 302 213 85 q 4 572 72 519 q 79 644 36 617 q 161 671 122 671 q 233 641 201 671 q 279 551 264 611 q 346 156 317 400 m 182 736 q 107 765 133 736 q 81 838 81 794 q 116 930 81 889 q 211 971 151 971 q 285 939 258 971 q 313 863 313 907 q 278 774 313 813 q 182 736 243 736 m 499 736 q 424 765 450 736 q 397 838 397 794 q 433 930 397 889 q 528 971 468 971 q 602 939 575 971 q 629 863 629 907 q 594 774 629 813 q 499 736 560 736 z "},"ı":{"ha":393,"x_min":53,"x_max":329,"o":"m 224 674 q 329 549 329 674 q 299 351 329 493 q 268 176 268 210 q 313 93 268 121 q 255 13 293 40 q 171 -14 217 -14 q 53 113 53 -14 q 84 318 53 178 q 115 493 115 458 q 72 558 115 553 q 122 640 79 607 q 224 674 164 674 z "},"Ł":{"ha":638,"x_min":-53,"x_max":638,"o":"m 156 631 q 182 917 172 760 q 289 925 222 925 q 407 853 407 925 q 401 811 407 846 q 383 716 394 776 q 365 606 372 656 q 499 714 450 665 q 553 644 553 686 q 514 589 553 617 l 346 471 q 308 140 308 211 q 375 139 328 139 q 523 148 447 139 q 622 169 599 157 q 638 88 638 129 q 631 50 638 65 q 607 25 624 35 q 574 9 590 15 q 528 1 558 3 q 475 -2 497 -1 q 413 -3 453 -3 q 154 1 217 -3 q 82 76 82 8 q 108 303 82 108 q 1 215 56 263 q -53 288 -53 249 q -14 340 -53 314 l 128 439 l 156 631 z "},"ł":{"ha":389,"x_min":-67,"x_max":542,"o":"m 292 1031 q 397 906 397 1031 q 367 663 397 864 q 430 712 389 679 q 488 757 471 744 q 542 688 542 731 q 503 632 542 658 l 344 522 q 294 176 294 206 q 339 93 294 121 q 290 18 324 50 q 203 -14 256 -14 q 79 113 79 -14 q 108 353 79 168 q -12 258 1 269 q -67 331 -67 292 q -28 383 -67 356 l 133 496 q 183 850 183 796 q 140 915 183 910 q 190 997 147 964 q 292 1031 232 1031 z "},"Œ":{"ha":1254,"x_min":61,"x_max":1275,"o":"m 1249 750 q 1028 779 1185 779 q 914 775 983 779 q 889 564 911 728 q 1118 569 1074 564 q 1121 521 1121 542 q 1060 424 1121 431 q 868 421 1026 421 q 840 140 840 194 q 929 138 879 138 q 1080 147 1003 138 q 1181 168 1157 156 q 1192 90 1192 115 q 1143 10 1192 24 q 924 -4 1094 -4 q 667 -1 711 -4 q 608 38 628 0 q 418 -14 511 -14 q 156 88 250 -14 q 61 365 61 190 q 197 772 61 608 q 549 936 332 936 q 699 903 631 936 q 1025 924 864 924 q 1264 897 1238 924 q 1275 858 1275 886 q 1249 750 1275 803 m 511 794 q 355 682 415 794 q 294 410 294 569 q 334 207 294 288 q 457 126 374 126 q 621 200 560 126 q 651 423 625 231 q 688 710 678 615 q 511 794 613 794 z "},"œ":{"ha":1061,"x_min":35,"x_max":1033,"o":"m 922 182 q 994 99 994 149 q 926 18 994 50 q 764 -14 857 -14 q 533 81 624 -14 q 306 -14 429 -14 q 108 63 181 -14 q 35 265 35 140 q 140 554 35 436 q 407 672 244 672 q 614 579 536 672 q 836 671 721 671 q 976 625 918 671 q 1033 497 1033 579 q 945 300 1033 371 q 722 229 857 229 q 681 232 706 229 q 797 111 689 111 q 922 182 876 111 m 371 547 q 291 467 322 547 q 260 286 260 388 q 282 160 260 210 q 344 111 304 111 q 424 190 393 111 q 456 368 456 268 q 434 497 456 447 q 371 547 413 547 m 804 481 q 794 529 804 510 q 764 549 783 549 q 708 492 732 549 q 681 344 685 435 q 717 349 703 346 q 756 363 732 351 q 792 405 779 375 q 804 481 804 435 z "},"Š":{"ha":722,"x_min":32,"x_max":722,"o":"m 600 681 q 546 758 588 729 q 458 786 504 786 q 366 751 404 786 q 328 653 328 717 q 363 590 328 614 q 449 549 399 565 q 551 513 500 533 q 638 444 603 492 q 674 324 674 396 q 572 75 674 164 q 296 -14 469 -14 q 113 28 193 -14 q 32 131 32 71 q 136 239 32 206 q 206 159 157 189 q 307 129 254 129 q 406 166 365 129 q 447 275 447 203 q 429 325 447 304 q 381 357 411 346 q 316 379 351 368 q 246 407 281 390 q 181 447 211 424 q 133 515 151 471 q 115 619 115 560 q 219 849 115 767 q 485 932 324 932 q 647 894 571 932 q 722 792 722 857 q 693 721 722 751 q 600 681 664 690 m 436 989 q 247 1190 247 1118 q 331 1272 247 1242 q 382 1207 350 1239 q 436 1160 414 1175 l 458 1144 q 570 1232 536 1208 q 631 1256 604 1256 q 700 1203 661 1256 q 436 989 575 1078 z "},"š":{"ha":636,"x_min":7,"x_max":606,"o":"m 424 450 q 395 517 418 493 q 340 540 372 540 q 284 522 308 540 q 260 467 260 503 q 287 422 260 439 q 353 396 314 406 q 431 372 392 386 q 497 322 469 357 q 524 232 524 288 q 435 54 524 122 q 229 -14 347 -14 q 7 90 7 -14 q 129 219 7 169 q 170 144 138 169 q 243 119 203 119 q 313 137 285 119 q 340 192 340 154 q 313 229 340 215 q 247 253 286 243 q 170 278 208 263 q 105 330 132 293 q 78 424 78 367 q 165 601 78 529 q 365 674 253 674 q 452 664 410 674 q 530 628 494 654 q 565 563 565 601 q 424 450 565 474 m 342 721 q 153 922 153 850 q 236 1004 153 974 q 288 939 256 971 q 342 892 319 907 l 364 876 q 476 964 442 940 q 536 988 510 988 q 606 935 567 988 q 342 721 481 810 z "},"Ÿ":{"ha":707,"x_min":63,"x_max":785,"o":"m 261 392 q 63 846 140 772 q 142 910 110 892 q 214 928 175 928 q 272 915 249 928 q 308 863 294 901 q 419 540 368 707 q 532 751 469 618 q 600 933 594 885 q 785 846 785 933 q 478 392 785 775 l 464 276 q 447 93 447 133 q 453 11 447 46 q 326 -4 407 -4 q 244 17 268 -4 q 219 82 219 38 q 224 120 219 89 q 239 231 228 151 q 261 392 250 311 m 335 1004 q 260 1033 286 1004 q 233 1106 233 1063 q 269 1198 233 1157 q 364 1239 304 1239 q 438 1207 411 1239 q 465 1131 465 1175 q 431 1042 465 1081 q 335 1004 396 1004 m 651 1004 q 576 1033 603 1004 q 550 1106 550 1063 q 585 1198 550 1157 q 681 1239 621 1239 q 755 1207 728 1239 q 782 1131 782 1175 q 747 1042 782 1081 q 651 1004 713 1004 z "},"Ž":{"ha":814,"x_min":50,"x_max":811,"o":"m 214 926 q 425 908 261 926 q 668 889 589 889 q 779 907 742 889 q 811 819 811 875 q 783 738 811 769 l 425 328 q 304 171 353 243 q 336 172 314 172 q 480 154 382 172 q 621 136 578 136 q 743 158 700 136 q 764 78 764 111 q 726 7 764 28 q 590 -14 689 -14 q 419 3 547 -14 q 217 21 292 21 q 88 4 140 21 q 50 85 50 42 q 72 158 50 117 q 539 743 147 293 q 386 759 490 743 q 228 775 282 775 q 121 749 174 775 q 101 835 101 797 q 214 926 101 926 m 490 989 q 301 1190 301 1118 q 385 1272 301 1242 q 436 1207 404 1239 q 490 1160 468 1175 l 513 1144 q 624 1232 590 1208 q 685 1256 658 1256 q 754 1203 715 1256 q 490 989 629 1078 z "},"ž":{"ha":663,"x_min":15,"x_max":656,"o":"m 165 671 q 335 658 204 671 q 526 644 465 644 q 625 657 594 644 q 649 586 649 632 q 628 531 649 553 q 292 150 407 299 q 313 151 299 151 q 408 138 343 151 q 503 125 474 125 q 579 142 551 125 q 594 75 594 107 q 563 7 594 28 q 460 -14 532 -14 q 320 -1 425 -14 q 157 11 215 11 q 42 -1 88 11 q 15 57 15 35 q 32 110 15 78 q 374 517 82 197 q 274 525 340 517 q 171 533 207 533 q 89 514 128 533 q 78 588 78 554 q 165 671 78 671 m 392 721 q 203 922 203 850 q 286 1004 203 974 q 338 939 306 971 q 392 892 369 907 l 414 876 q 526 964 492 940 q 586 988 560 988 q 656 935 617 988 q 392 721 531 810 z "},"ƒ":{"ha":797,"x_min":-56,"x_max":788,"o":"m 474 494 l 413 167 q 370 35 394 90 q 307 -69 346 -21 q 209 -142 268 -117 q 72 -167 150 -167 q -24 -144 8 -167 q -56 -86 -56 -121 q 68 28 -56 -11 q 119 -36 76 -36 q 168 2 153 -36 q 203 142 183 40 l 271 496 q 196 490 229 494 q 192 522 192 504 q 247 603 192 596 l 293 604 q 338 731 313 676 q 405 835 364 786 q 508 910 446 883 q 651 936 571 936 q 753 913 719 936 q 788 853 788 889 q 755 788 788 819 q 658 740 722 756 q 640 792 653 779 q 601 806 626 806 q 533 762 553 806 q 494 608 514 718 q 668 626 594 615 q 672 583 672 603 q 586 490 672 490 l 474 494 z "},"ˆ":{"ha":564,"x_min":160,"x_max":610,"o":"m 422 999 q 511 936 476 963 q 578 872 546 910 q 610 803 610 833 q 584 756 610 781 q 518 721 558 731 q 463 791 492 760 q 417 833 433 822 l 400 844 q 225 732 257 732 q 189 742 201 732 q 160 785 176 753 q 422 999 281 908 z "},"ˇ":{"ha":561,"x_min":246,"x_max":699,"o":"m 435 721 q 246 922 246 850 q 329 1004 246 974 q 381 939 349 971 q 435 892 413 907 l 457 876 q 569 964 535 940 q 629 988 603 988 q 699 935 660 988 q 435 721 574 810 z "},"˘":{"ha":560,"x_min":154,"x_max":615,"o":"m 306 917 q 317 902 306 917 q 378 888 328 888 q 457 917 428 888 q 510 1010 486 947 q 615 950 615 1004 q 537 812 615 882 q 358 742 458 742 q 208 803 263 742 q 154 929 154 864 q 278 1010 154 1000 q 306 917 283 947 z "},"˙":{"ha":568,"x_min":224,"x_max":467,"o":"m 331 738 q 251 769 278 738 q 224 844 224 800 q 260 941 224 899 q 360 983 297 983 q 439 950 411 983 q 467 871 467 917 q 431 777 467 817 q 331 738 396 738 z "},"˚":{"ha":525,"x_min":293,"x_max":597,"o":"m 435 819 q 495 851 472 819 q 518 922 518 882 q 503 982 518 960 q 458 1004 488 1004 q 397 973 421 1004 q 374 901 374 942 q 390 842 374 865 q 435 819 406 819 m 425 750 q 329 787 365 750 q 293 885 293 824 q 342 1017 293 960 q 468 1074 392 1074 q 563 1038 528 1074 q 597 940 597 1001 q 551 806 597 861 q 425 750 504 750 z "},"˛":{"ha":553,"x_min":118,"x_max":454,"o":"m 338 21 l 436 10 q 331 -74 378 -21 q 283 -183 283 -126 q 315 -219 283 -219 q 403 -168 363 -219 q 454 -236 454 -200 q 436 -283 454 -262 q 390 -313 418 -303 q 335 -328 363 -324 q 281 -332 307 -332 q 160 -299 201 -332 q 118 -212 118 -265 q 182 -74 118 -135 q 338 21 246 -14 z "},"˜":{"ha":550,"x_min":181,"x_max":665,"o":"m 665 889 q 603 787 665 832 q 479 742 542 742 q 394 772 447 742 q 319 801 342 801 q 224 746 292 801 q 181 794 181 764 q 244 896 181 850 q 367 942 307 942 q 451 912 397 942 q 528 882 506 882 q 622 938 557 882 q 651 922 638 935 q 665 889 665 908 z "},"˝":{"ha":617,"x_min":15,"x_max":671,"o":"m 308 878 q 177 798 271 851 q 61 726 83 744 q 15 789 15 754 q 45 840 15 818 q 147 911 75 863 q 285 1028 218 960 q 353 944 353 989 q 308 878 353 906 m 626 878 q 495 798 589 851 q 379 726 401 744 q 333 789 333 754 q 363 840 333 818 q 465 911 393 863 q 603 1028 536 960 q 671 944 671 989 q 626 878 671 906 z "},"π":{"ha":706,"x_min":25,"x_max":760,"o":"m 149 532 q 32 507 83 529 q 25 551 25 522 q 47 628 25 594 q 110 663 68 663 l 160 661 q 314 660 210 661 q 549 660 418 660 q 754 686 686 660 q 760 638 760 658 q 740 564 760 597 q 678 531 719 531 l 617 531 q 558 88 558 221 q 563 14 558 43 q 453 -4 514 -4 q 381 13 400 -4 q 363 65 363 31 q 372 143 363 75 q 400 333 382 211 q 429 533 418 454 l 328 533 l 274 89 q 267 53 271 65 q 253 24 264 40 q 221 2 243 8 q 164 -4 199 -4 q 69 14 101 -4 q 113 192 99 79 q 132 351 124 272 q 144 477 140 431 q 149 532 147 524 z "},"–":{"ha":797,"x_min":42,"x_max":749,"o":"m 749 408 q 719 320 749 354 q 635 286 689 286 q 531 291 607 286 q 413 296 454 296 l 275 296 q 43 274 171 296 q 42 311 42 289 q 69 408 42 371 q 154 444 96 444 q 248 440 171 444 q 372 436 325 436 l 528 436 q 743 457 644 436 q 749 408 749 429 z "},"—":{"ha":1160,"x_min":42,"x_max":1118,"o":"m 1114 457 q 1118 411 1118 433 q 1090 322 1118 357 q 1004 286 1063 286 q 900 291 975 286 q 783 296 825 296 l 275 296 q 43 274 174 296 q 42 310 42 286 q 156 444 42 444 q 247 440 172 444 q 369 436 322 436 l 897 436 q 1114 457 1013 436 z "},"‘":{"ha":363,"x_min":100,"x_max":393,"o":"m 329 785 q 336 742 336 765 q 299 651 336 689 q 203 613 261 613 q 126 647 151 613 q 100 739 100 682 q 173 935 100 842 q 351 1028 246 1028 q 393 986 393 1028 q 385 944 393 967 l 379 944 q 312 914 344 944 q 279 843 279 883 q 329 785 279 794 z "},"’":{"ha":365,"x_min":88,"x_max":379,"o":"m 150 860 q 142 903 142 881 q 180 993 142 954 q 276 1032 218 1032 q 353 998 328 1032 q 379 908 379 964 q 309 713 379 808 q 143 617 239 617 q 88 663 88 617 q 94 700 88 679 l 100 700 q 169 733 138 700 q 200 803 200 767 q 150 860 200 849 z "},"‚":{"ha":374,"x_min":0,"x_max":292,"o":"m 63 17 q 54 60 54 38 q 92 150 54 111 q 189 189 131 189 q 266 155 240 189 q 292 65 292 121 q 222 -131 292 -35 q 56 -226 151 -226 q 0 -181 0 -226 q 7 -143 0 -164 l 13 -143 q 81 -110 50 -143 q 113 -40 113 -76 q 63 17 113 6 z "},"“":{"ha":704,"x_min":100,"x_max":735,"o":"m 329 785 q 336 742 336 765 q 299 651 336 689 q 203 613 261 613 q 126 647 151 613 q 100 739 100 682 q 173 935 100 842 q 351 1028 246 1028 q 393 986 393 1028 q 385 944 393 967 l 379 944 q 312 914 344 944 q 279 843 279 883 q 329 785 279 794 m 671 785 q 678 742 678 765 q 640 651 678 689 q 544 613 603 613 q 467 647 493 613 q 442 739 442 682 q 515 935 442 842 q 693 1028 588 1028 q 735 986 735 1028 q 726 944 735 967 l 721 944 q 653 914 686 944 q 621 843 621 883 q 671 785 621 794 z "},"”":{"ha":690,"x_min":88,"x_max":704,"o":"m 150 860 q 142 903 142 881 q 180 993 142 954 q 276 1032 218 1032 q 353 998 328 1032 q 379 908 379 964 q 309 713 379 808 q 143 617 239 617 q 88 663 88 617 q 94 700 88 679 l 100 700 q 169 733 138 700 q 200 803 200 767 q 150 860 200 849 m 475 860 q 467 903 467 881 q 505 993 467 954 q 601 1032 543 1032 q 678 998 653 1032 q 704 908 704 964 q 634 713 704 808 q 468 617 564 617 q 413 663 413 617 q 419 700 413 679 l 425 700 q 494 733 463 700 q 525 803 525 767 q 475 860 525 849 z "},"„":{"ha":699,"x_min":0,"x_max":617,"o":"m 63 17 q 54 60 54 38 q 92 150 54 111 q 189 189 131 189 q 266 155 240 189 q 292 65 292 121 q 222 -131 292 -35 q 56 -226 151 -226 q 0 -181 0 -226 q 7 -143 0 -164 l 13 -143 q 81 -110 50 -143 q 113 -40 113 -76 q 63 17 113 6 m 388 17 q 379 60 379 38 q 417 150 379 111 q 514 189 456 189 q 591 155 565 189 q 617 65 617 121 q 547 -131 617 -35 q 381 -226 476 -226 q 325 -181 325 -226 q 332 -143 325 -164 l 338 -143 q 406 -110 375 -143 q 438 -40 438 -76 q 388 17 438 6 z "},"†":{"ha":679,"x_min":83,"x_max":679,"o":"m 300 713 q 310 926 300 718 q 421 935 368 935 q 526 926 469 935 q 508 842 525 922 q 482 713 490 761 q 675 746 574 714 q 679 701 679 725 q 658 608 679 647 q 588 569 636 569 q 529 573 567 569 q 463 578 492 576 q 426 225 438 361 q 412 44 414 89 q 408 -12 410 0 q 372 -70 406 -36 q 308 -125 339 -104 l 276 -147 q 249 -124 265 -139 q 207 -75 233 -110 q 181 -17 181 -40 q 190 33 181 -7 q 225 217 199 72 q 283 579 251 363 q 169 571 233 578 q 85 563 104 564 q 83 594 83 572 q 103 690 83 650 q 172 731 124 731 q 233 722 190 731 q 300 713 276 714 z "},"‡":{"ha":690,"x_min":22,"x_max":690,"o":"m 425 208 q 534 217 474 210 q 618 225 594 224 q 619 197 619 217 q 599 99 619 140 q 529 57 578 57 q 468 65 511 57 q 401 75 425 74 q 389 -139 396 24 q 278 -147 332 -147 q 172 -139 228 -147 q 218 75 210 26 q 26 42 128 74 q 22 85 22 63 q 45 178 22 139 q 115 218 68 218 q 174 214 138 218 q 239 210 211 210 q 249 394 246 379 q 293 579 250 400 q 181 571 244 578 q 94 563 117 564 q 93 590 93 571 q 114 689 93 647 q 183 731 135 731 q 244 722 201 731 q 311 713 288 714 q 324 926 317 764 q 435 935 379 935 q 540 926 483 935 q 494 713 503 761 q 686 746 585 714 q 690 703 690 725 q 667 609 690 649 q 597 569 644 569 q 538 574 575 569 q 474 578 501 578 q 468 394 469 403 q 458 350 465 381 q 441 277 451 319 q 425 208 431 235 z "},"•":{"ha":508,"x_min":50,"x_max":464,"o":"m 229 147 q 101 201 151 147 q 50 339 50 254 q 119 517 50 435 q 289 600 189 600 q 414 545 364 600 q 464 406 464 490 q 397 228 464 310 q 229 147 329 147 z "},"…":{"ha":1111,"x_min":22,"x_max":1060,"o":"m 135 -14 q 51 19 81 -14 q 22 99 22 51 q 62 201 22 156 q 167 246 101 246 q 249 210 219 246 q 279 126 279 175 q 241 28 279 71 q 135 -14 203 -14 m 915 -14 q 832 19 861 -14 q 803 99 803 51 q 842 201 803 156 q 947 246 882 246 q 1030 210 1000 246 q 1060 126 1060 175 q 1022 28 1060 71 q 915 -14 983 -14 m 525 -14 q 442 19 471 -14 q 413 99 413 51 q 452 201 413 156 q 557 246 492 246 q 640 210 610 246 q 669 126 669 175 q 631 28 669 71 q 525 -14 593 -14 z "},"‰":{"ha":1711,"x_min":88,"x_max":1624,"o":"m 297 565 q 362 614 340 565 q 383 718 383 663 q 332 822 383 822 q 265 773 286 822 q 243 668 243 724 q 297 565 243 565 m 285 463 q 140 514 193 463 q 88 653 88 565 q 158 846 88 768 q 344 924 229 924 q 488 873 436 924 q 540 733 540 822 q 470 540 540 618 q 285 463 400 463 m 856 89 q 920 138 899 89 q 942 242 942 186 q 890 346 942 346 q 823 297 844 346 q 801 192 801 247 q 856 89 801 89 m 843 -14 q 699 38 751 -14 q 646 176 646 89 q 717 369 646 292 q 903 447 788 447 q 1047 397 994 447 q 1099 257 1099 346 q 1028 64 1099 142 q 843 -14 958 -14 m 251 67 q 899 972 801 825 q 972 915 972 957 q 951 864 972 892 q 304 -44 406 107 q 231 17 231 -22 q 251 67 231 39 m 1381 89 q 1445 138 1424 89 q 1467 242 1467 186 q 1415 346 1467 346 q 1348 297 1369 346 q 1326 192 1326 247 q 1381 89 1326 89 m 1368 -14 q 1224 38 1276 -14 q 1171 176 1171 89 q 1242 369 1171 292 q 1428 447 1313 447 q 1572 397 1519 447 q 1624 257 1624 346 q 1553 64 1624 142 q 1368 -14 1483 -14 z "},"‹":{"ha":456,"x_min":75,"x_max":435,"o":"m 279 326 q 346 206 313 275 q 379 114 379 138 q 276 33 379 72 q 75 326 189 121 q 353 619 238 528 q 435 543 435 576 q 279 326 435 506 z "},"›":{"ha":458,"x_min":21,"x_max":383,"o":"m 179 326 q 113 439 149 371 q 78 533 78 507 q 99 572 78 553 q 182 619 119 592 q 383 326 261 540 q 103 33 217 124 q 21 106 21 67 q 179 326 21 153 z "},"⁄":{"ha":304,"x_min":-224,"x_max":515,"o":"m -208 -53 l 186 606 q 426 1026 338 856 q 488 1013 460 1026 q 515 972 515 999 q 500 928 515 950 l 106 269 q -135 -151 -53 8 q -197 -135 -169 -150 q -224 -94 -224 -121 q -208 -53 -224 -76 z "},"€":{"ha":797,"x_min":33,"x_max":836,"o":"m 638 339 l 353 339 q 420 173 365 224 q 539 122 475 122 q 685 172 628 122 q 729 83 729 139 q 518 -12 729 -12 q 387 4 447 -12 q 271 58 326 21 q 181 167 215 96 q 138 339 146 239 q 35 328 90 336 q 33 349 33 336 q 48 397 33 379 q 90 415 63 415 l 135 415 q 143 492 135 442 q 56 482 104 489 q 54 503 54 490 q 69 551 54 533 q 111 569 83 569 l 163 569 q 340 831 214 726 q 649 935 467 935 q 836 847 836 935 q 815 794 836 821 q 763 751 794 767 q 621 801 713 801 q 478 735 543 801 q 378 569 414 668 l 413 569 q 714 581 597 569 l 715 564 q 658 493 715 493 l 357 493 q 349 415 349 440 l 392 415 q 693 426 576 415 l 694 410 q 638 339 694 339 z "},"™":{"ha":1328,"x_min":106,"x_max":1258,"o":"m 160 906 l 365 906 q 550 910 506 906 q 561 865 561 892 q 549 817 561 838 q 510 797 536 797 l 408 797 l 408 563 q 426 418 408 471 q 342 404 383 404 q 258 472 258 404 l 258 797 q 115 792 160 797 q 106 840 106 817 q 160 906 106 906 m 1242 767 l 1242 558 q 1258 413 1242 471 q 1186 403 1222 403 q 1092 458 1092 403 q 1092 545 1092 485 q 1093 671 1093 606 q 1015 410 1053 561 q 939 403 978 403 q 851 436 863 403 q 822 528 839 475 q 793 619 806 582 q 769 682 781 657 l 769 558 q 786 413 769 471 q 721 403 757 403 q 640 458 640 403 q 641 502 640 468 q 642 606 642 536 q 642 772 642 675 q 629 903 642 840 q 719 911 671 911 q 821 860 793 911 q 935 563 876 751 q 1049 861 985 731 q 1094 898 1061 885 q 1165 911 1128 911 q 1254 900 1221 911 q 1242 767 1242 847 z "},"Ω":{"ha":1188,"x_min":50,"x_max":1100,"o":"m 669 942 q 951 841 840 942 q 1061 576 1061 740 q 746 131 1061 281 l 957 131 q 1044 265 997 179 q 1067 271 1058 271 q 1100 243 1100 271 q 1033 0 1100 225 l 704 0 q 619 71 619 0 q 629 139 619 94 q 789 324 733 207 q 844 576 844 440 q 796 753 844 690 q 651 815 747 815 q 493 751 558 815 q 401 601 428 688 q 375 418 375 514 q 496 139 375 238 q 497 115 497 131 q 385 0 497 0 l 57 0 q 50 210 50 78 q 90 269 50 269 q 114 265 103 269 q 165 131 150 160 l 378 131 q 217 265 272 189 q 163 450 163 340 q 309 800 163 658 q 669 942 456 942 z "},"∂":{"ha":760,"x_min":39,"x_max":715,"o":"m 208 771 q 193 847 193 817 q 226 915 193 894 q 331 935 260 935 q 456 915 393 935 q 580 852 519 894 q 678 730 640 810 q 715 543 715 650 q 688 348 715 444 q 608 169 660 251 q 469 37 556 88 q 276 -14 383 -14 q 98 50 157 -14 q 39 213 39 114 q 74 376 39 292 q 181 522 110 460 q 338 585 251 585 q 510 508 433 585 q 515 585 515 546 q 350 796 515 796 q 208 771 294 796 m 399 453 q 290 363 333 453 q 247 197 247 274 q 299 119 247 119 q 419 197 369 119 q 490 383 468 275 q 399 453 449 453 z "},"∆":{"ha":921,"x_min":-1,"x_max":821,"o":"m 754 0 l 49 0 q -1 47 -1 0 q 0 65 -1 58 q 432 858 329 656 q 526 896 450 896 q 593 889 556 896 q 821 67 747 318 q 754 0 811 0 m 447 649 l 186 165 q 390 156 253 156 q 576 163 522 156 l 447 649 z "},"∏":{"ha":929,"x_min":75,"x_max":1038,"o":"m 1036 928 q 1038 901 1038 921 q 974 786 1038 786 l 835 792 q 769 386 797 603 q 740 90 740 169 q 744 14 740 51 q 638 -4 704 -4 q 547 13 571 -4 q 524 65 524 31 q 531 125 524 74 q 564 367 538 176 q 622 794 590 558 l 599 794 q 440 793 482 794 l 378 321 q 363 190 372 274 q 350 82 353 107 q 317 17 344 38 q 221 -4 289 -4 q 126 13 153 -4 q 183 282 161 101 l 217 531 q 234 694 226 600 q 242 792 242 789 q 81 774 142 788 q 75 832 75 801 q 94 899 75 875 q 164 922 114 922 q 288 921 189 922 q 440 919 386 919 l 689 919 q 1036 928 886 919 z "},"∑":{"ha":914,"x_min":-32,"x_max":864,"o":"m 149 921 l 854 921 q 864 713 864 811 q 810 665 864 665 q 790 667 799 665 q 744 815 767 775 l 357 815 l 476 544 q 486 501 486 525 q 465 438 486 469 l 200 76 l 664 76 q 740 211 693 115 q 760 213 749 213 q 804 183 804 213 q 728 -86 804 143 l -15 -86 q -32 -61 -32 -86 l -32 -57 l 326 422 l 114 882 q 149 921 119 921 z "},"−":{"ha":797,"x_min":74,"x_max":681,"o":"m 681 361 q 661 302 681 326 q 610 278 642 278 q 503 285 586 278 q 379 293 421 293 q 79 278 222 293 q 74 336 74 307 q 91 394 74 368 q 144 419 108 419 q 238 413 150 419 q 390 406 326 406 q 672 419 576 406 q 681 361 681 403 z "},"√":{"ha":822,"x_min":42,"x_max":825,"o":"m 317 686 l 460 243 l 717 1021 q 769 1026 744 1026 q 825 992 825 1026 q 823 978 825 988 q 815 951 821 969 q 802 908 810 932 q 779 840 794 883 q 747 749 764 797 q 705 623 731 700 q 651 463 679 546 q 581 259 622 379 q 497 11 540 139 q 467 -33 486 -21 q 408 -44 447 -44 q 357 -42 396 -44 l 165 554 q 65 506 135 542 q 42 544 42 521 q 61 579 42 565 q 169 635 94 603 q 317 686 243 667 z "},"∞":{"ha":1044,"x_min":43,"x_max":1001,"o":"m 275 585 q 403 547 346 585 q 525 438 461 508 q 601 510 574 486 q 679 560 629 535 q 779 585 729 585 q 938 522 875 585 q 1001 364 1001 458 q 931 201 1001 261 q 765 140 861 140 q 649 174 706 140 q 521 282 593 207 q 399 180 458 218 q 269 142 339 142 q 108 205 174 142 q 43 361 43 268 q 110 521 43 457 q 275 585 176 585 m 281 257 q 454 354 357 257 q 420 394 442 372 q 355 444 399 417 q 272 472 311 472 q 196 440 225 472 q 167 357 167 407 q 199 285 167 314 q 281 257 232 257 m 879 367 q 847 445 879 418 q 767 472 815 472 q 606 378 697 472 l 594 367 q 765 257 690 257 q 848 287 817 257 q 879 367 879 317 z "},"∫":{"ha":535,"x_min":-92,"x_max":690,"o":"m 215 578 q 347 908 243 789 q 582 1026 451 1026 q 663 1006 636 1026 q 690 956 690 986 q 659 888 690 917 q 586 853 628 860 q 558 901 576 879 q 519 922 540 922 q 439 742 461 922 q 408 470 428 654 q 379 214 389 286 q 324 3 363 94 q 235 -140 286 -87 q 128 -217 185 -192 q 13 -243 72 -243 q -65 -223 -39 -243 q -92 -172 -92 -203 q -59 -100 -92 -132 q 18 -61 -26 -68 q 38 -124 26 -110 q 75 -139 50 -139 q 168 63 143 -139 q 191 317 179 144 q 215 578 203 489 z "},"≈":{"ha":797,"x_min":0,"x_max":797,"o":"m 797 519 q 725 403 797 468 q 583 339 653 339 q 476 363 531 339 q 382 415 421 386 q 297 468 343 444 q 214 492 250 492 q 61 375 150 492 q 0 444 0 403 q 76 560 0 504 q 218 617 153 617 q 332 592 274 617 q 429 539 390 568 q 510 485 468 510 q 582 461 553 461 q 732 588 647 461 q 797 519 797 568 m 797 200 q 725 84 797 149 q 583 19 653 19 q 476 43 531 19 q 382 96 421 67 q 297 149 343 125 q 214 172 250 172 q 61 56 150 172 q 0 125 0 83 q 76 241 0 185 q 218 297 153 297 q 332 273 274 297 q 429 219 390 249 q 510 166 468 190 q 582 142 553 142 q 732 268 647 142 q 797 200 797 249 z "},"≠":{"ha":797,"x_min":100,"x_max":711,"o":"m 250 17 q 211 -62 219 -39 q 147 -19 147 -56 q 182 57 147 -6 l 238 157 q 106 146 175 154 q 100 204 100 175 q 117 262 100 236 q 171 288 135 288 q 198 286 179 288 q 247 282 217 285 q 304 278 278 279 l 390 433 q 106 418 229 432 q 100 476 100 447 q 117 534 100 508 q 171 560 135 560 q 265 553 176 560 q 419 546 354 546 l 453 546 l 538 697 q 576 776 551 722 q 640 733 640 769 q 610 664 640 718 l 544 547 q 704 560 663 553 q 711 501 711 532 q 692 442 711 467 q 640 418 672 418 q 559 424 618 418 q 479 431 500 429 l 393 274 l 419 274 q 704 288 608 274 q 711 229 711 260 q 692 170 711 194 q 640 146 672 146 q 532 153 617 146 q 406 161 447 161 q 329 160 353 161 l 250 17 z "},"≤":{"ha":797,"x_min":138,"x_max":613,"o":"m 613 79 q 593 20 613 44 q 542 -4 574 -4 q 462 3 524 -4 q 368 11 400 11 q 143 -4 250 11 q 138 54 138 25 q 155 112 138 86 q 208 138 172 138 q 279 131 213 138 q 393 124 346 124 q 606 138 535 124 q 613 79 613 121 m 299 440 l 582 254 q 540 206 567 225 q 485 186 513 186 q 435 208 458 186 l 147 440 l 433 685 q 483 707 460 707 q 540 686 513 707 q 581 639 568 665 l 299 440 z "},"≥":{"ha":797,"x_min":167,"x_max":642,"o":"m 167 79 q 174 138 167 121 q 386 124 244 124 q 500 131 433 124 q 571 138 567 138 q 624 112 607 138 q 642 54 642 86 q 636 -4 642 25 q 411 11 529 11 q 317 3 379 11 q 238 -4 256 -4 q 186 20 206 -4 q 167 79 167 44 m 197 256 l 481 442 l 199 640 q 239 688 211 667 q 296 708 267 708 q 346 686 319 708 l 632 442 l 344 210 q 294 188 321 188 q 240 207 267 188 q 197 256 213 226 z "},"◊":{"ha":703,"x_min":50,"x_max":689,"o":"m 50 476 l 354 924 q 436 953 374 953 q 510 924 497 953 l 689 476 l 381 25 q 301 0 363 0 q 228 31 240 0 l 50 476 m 551 476 l 417 818 l 189 476 l 321 135 l 551 476 z "},"":{"ha":797,"x_min":54,"x_max":706,"o":"m 126 540 q 203 723 126 649 q 411 814 279 797 q 418 900 417 871 q 453 907 443 907 q 501 867 501 907 q 501 859 501 865 q 499 841 500 853 q 496 818 497 829 q 641 778 576 814 q 706 682 706 742 q 599 594 706 613 q 476 681 569 669 l 446 476 q 507 459 486 465 q 564 436 528 453 q 618 401 600 419 q 651 351 636 382 q 667 281 667 319 q 588 82 667 156 q 379 -8 510 8 q 375 -90 375 -51 l 344 -94 q 294 -53 294 -94 q 299 -14 294 -44 q 128 26 201 -12 q 54 115 54 64 q 150 213 54 175 q 211 145 167 172 q 315 117 256 118 q 343 319 331 219 q 282 337 306 329 q 225 362 258 344 q 173 401 192 379 q 140 458 154 422 q 126 540 126 494 m 421 297 q 410 218 418 276 q 397 131 401 160 q 475 238 475 163 q 421 297 475 276 m 369 503 q 393 674 375 547 q 318 569 318 647 q 369 503 318 528 z "},"":{"ha":707,"x_min":35,"x_max":672,"o":"m 225 217 q 242 196 225 217 q 332 175 258 175 q 461 221 406 175 q 517 344 517 267 q 483 444 517 403 q 374 485 450 485 q 247 440 301 485 q 192 318 192 394 q 225 217 192 258 m 308 -14 q 108 61 181 -14 q 35 267 35 136 q 133 554 35 433 q 399 675 232 675 q 599 601 526 675 q 672 394 672 526 q 574 105 672 224 q 308 -14 476 -14 z "},"":{"ha":515,"x_min":0,"x_max":460,"o":"m 347 128 q 457 133 399 128 q 460 103 460 122 q 445 28 460 58 q 400 -3 431 -3 q 354 -2 390 -3 q 256 -1 318 -1 q 118 0 193 0 q 4 -1 44 0 q 0 40 0 15 q 85 135 0 135 l 150 135 q 204 532 179 306 q 78 513 103 517 q 75 539 75 529 q 94 610 75 578 q 150 650 114 643 q 357 674 282 674 q 400 654 382 674 q 418 590 418 635 q 409 536 418 579 q 386 422 400 493 q 364 288 372 351 q 347 128 347 160 z "},"":{"ha":676,"x_min":-14,"x_max":621,"o":"m 301 158 q 475 167 363 158 q 610 185 557 169 q 621 107 621 149 q 521 3 621 11 q 254 -3 442 -3 q 42 0 161 -3 q -14 79 -14 1 q -8 138 -14 104 q 119 199 58 167 q 248 274 181 231 q 356 369 315 318 q 396 468 396 419 q 378 520 396 501 q 329 539 360 539 q 252 510 293 539 q 182 426 211 481 q 109 458 139 432 q 79 514 79 485 q 176 621 79 568 q 389 674 272 674 q 555 624 500 674 q 610 499 610 575 q 585 384 610 436 q 511 290 561 332 q 417 222 461 249 q 301 158 372 194 z "},"":{"ha":590,"x_min":-49,"x_max":556,"o":"m 378 279 q 483 203 447 253 q 518 90 518 153 q 409 -124 518 -28 q 125 -221 300 -221 q -49 -126 -49 -221 q 42 -33 -49 -71 q 135 -83 74 -83 q 253 -38 199 -83 q 308 76 308 7 q 264 162 308 131 q 149 193 219 193 q 101 250 101 193 q 110 313 101 279 q 285 355 224 314 q 346 457 346 396 q 324 517 346 493 q 265 540 303 540 q 203 512 235 540 q 149 428 172 483 q 71 451 99 428 q 43 508 43 474 q 135 617 43 563 q 331 672 228 672 q 497 623 439 672 q 556 500 556 574 q 378 279 556 354 z "},"":{"ha":736,"x_min":0,"x_max":708,"o":"m 438 649 q 561 674 469 674 q 649 669 582 674 q 638 615 649 665 q 613 476 628 564 q 585 296 597 388 l 571 190 q 701 214 668 199 q 708 161 708 190 q 672 67 708 89 q 551 46 644 50 q 532 -140 532 -74 q 538 -204 532 -176 q 436 -221 486 -221 q 350 -202 375 -221 q 325 -143 325 -183 q 354 43 325 -129 q 33 53 121 43 q 0 118 0 57 q 8 188 0 153 q 242 453 106 304 q 438 649 378 603 m 215 186 q 294 182 253 182 q 376 186 336 182 l 422 467 q 215 186 379 417 z "},"":{"ha":635,"x_min":-49,"x_max":600,"o":"m 499 507 q 278 518 393 507 l 243 369 q 331 376 294 376 q 557 160 557 376 q 430 -117 557 -12 q 111 -221 303 -221 q -4 -200 40 -221 q -49 -139 -49 -179 q -33 -87 -49 -112 q 7 -50 -18 -62 q 115 -85 43 -85 q 271 -32 201 -85 q 340 117 340 21 q 154 254 340 254 q 54 247 110 254 q 46 286 46 258 q 119 663 46 300 q 422 661 164 661 q 590 672 524 661 q 600 610 600 642 q 574 535 600 563 q 499 507 547 507 z "},"":{"ha":694,"x_min":35,"x_max":676,"o":"m 286 -14 q 95 53 156 -14 q 35 233 35 119 q 109 544 35 394 q 309 788 183 694 q 576 881 435 881 q 649 865 622 881 q 676 822 676 850 q 658 754 676 794 q 608 760 635 760 q 416 687 500 760 q 292 506 332 614 q 251 279 251 399 q 339 119 251 119 q 412 187 382 119 q 442 331 442 254 q 427 418 442 383 q 383 453 413 453 q 367 451 374 453 q 360 496 360 476 q 464 576 360 576 q 610 522 561 576 q 658 374 658 467 q 555 107 658 228 q 286 -14 451 -14 z "},"":{"ha":672,"x_min":-35,"x_max":672,"o":"m 404 511 q 118 507 196 507 q 32 586 32 507 q 51 671 32 625 q 219 660 119 660 q 667 663 586 660 q 672 626 672 646 q 642 531 672 589 q 455 203 596 440 q 238 -139 314 -33 q 178 -201 206 -182 q 117 -221 151 -221 q 40 -195 82 -221 q -35 -129 -1 -169 q 202 172 72 -24 q 404 511 332 368 z "},"":{"ha":693,"x_min":21,"x_max":672,"o":"m 292 -14 q 90 44 158 -14 q 21 188 21 101 q 81 367 21 293 q 233 481 142 440 q 124 653 124 546 q 211 817 124 754 q 431 881 299 881 q 602 836 532 881 q 672 718 672 792 q 501 481 672 563 q 605 394 568 442 q 642 271 642 346 q 550 70 642 154 q 292 -14 458 -14 m 324 119 q 397 165 367 119 q 426 268 426 211 q 403 344 426 315 q 332 406 381 374 q 236 226 236 338 q 260 151 236 182 q 324 119 283 119 m 444 728 q 435 738 444 728 q 400 747 426 747 q 353 721 374 747 q 333 654 333 694 q 399 543 333 588 q 461 681 461 596 q 444 728 461 710 z "},"":{"ha":694,"x_min":18,"x_max":660,"o":"m 408 674 q 599 607 539 674 q 660 426 660 540 q 590 120 660 268 q 390 -124 521 -28 q 103 -221 260 -221 q 18 -168 18 -221 q 36 -94 18 -140 q 86 -100 60 -100 q 278 -27 194 -100 q 403 153 363 46 q 443 381 443 261 q 356 540 443 540 q 283 473 313 540 q 253 329 253 406 q 267 242 253 276 q 311 207 282 207 q 328 208 321 207 q 335 164 335 183 q 231 83 335 83 q 85 139 133 83 q 36 286 36 194 q 140 553 36 432 q 408 674 243 674 z "},"":{"ha":797,"x_min":96,"x_max":735,"o":"m 399 -133 q 349 -92 349 -133 q 357 -10 349 -85 q 159 81 222 6 q 96 267 96 156 q 190 531 96 418 q 449 668 285 644 q 458 783 451 689 q 493 790 483 790 q 542 750 542 790 q 532 674 542 749 q 668 633 601 669 q 735 535 735 597 q 708 478 735 503 q 635 443 681 453 q 514 539 589 538 l 456 119 l 472 119 q 592 201 535 119 q 654 176 632 196 q 676 129 676 156 q 598 27 676 64 q 438 -14 519 -10 q 429 -129 432 -53 l 399 -133 m 314 288 q 378 144 314 189 q 428 517 403 315 q 345 426 376 488 q 314 288 314 364 z "},"ﬀ":{"ha":1039,"x_min":0,"x_max":1178,"o":"m 1063 789 q 968 868 1043 868 q 911 835 935 868 q 877 758 888 803 q 863 657 867 713 q 1047 664 960 657 q 1056 614 1056 643 q 1040 556 1056 579 q 989 531 1024 532 q 849 528 957 528 q 806 122 824 261 q 798 61 800 78 q 788 3 796 44 q 774 -57 781 -39 q 753 -105 767 -75 q 722 -148 739 -135 q 681 -172 706 -161 q 626 -183 657 -183 q 555 -156 586 -183 q 511 -75 524 -129 q 643 531 606 -46 l 338 531 q 294 122 311 265 q 287 61 289 78 q 277 3 285 44 q 263 -57 269 -39 q 242 -105 256 -75 q 211 -148 228 -135 q 170 -172 194 -161 q 115 -183 146 -183 q 44 -156 75 -183 q 0 -75 13 -129 q 132 525 94 -46 q 29 518 64 522 q 25 561 25 539 q 107 660 25 660 l 151 660 q 233 899 161 806 q 447 992 306 992 q 569 955 524 992 q 615 871 615 918 q 588 811 615 838 q 507 776 560 785 q 476 838 497 819 q 432 857 454 857 q 374 798 394 857 q 349 660 354 739 l 656 660 q 748 901 667 810 q 992 992 829 992 q 1120 963 1063 992 q 1178 875 1178 935 q 1150 821 1178 844 q 1063 789 1122 797 z "},"ﬁ":{"ha":838,"x_min":0,"x_max":811,"o":"m 696 674 q 801 549 801 674 q 778 351 801 493 q 756 176 756 210 q 800 93 756 121 q 742 13 781 40 q 658 -14 704 -14 q 540 113 540 -14 q 564 318 540 178 q 588 493 588 458 q 579 533 588 514 q 338 531 501 531 q 294 122 311 265 q 287 61 289 78 q 277 3 285 44 q 263 -57 269 -39 q 242 -105 256 -75 q 211 -148 228 -135 q 170 -172 194 -161 q 115 -183 146 -183 q 44 -156 75 -183 q 0 -75 13 -129 q 132 525 94 -46 q 31 518 67 522 q 26 561 26 539 q 108 660 26 660 l 149 660 q 201 819 157 750 q 311 928 246 889 q 446 986 376 967 q 586 1006 515 1006 q 811 892 811 1006 q 629 778 811 783 q 521 861 607 861 q 406 810 457 861 q 350 660 356 758 q 635 663 576 660 q 696 674 664 674 z "},"ﬂ":{"ha":889,"x_min":0,"x_max":875,"o":"m 769 1031 q 875 906 875 1031 q 824 530 875 850 q 772 176 772 210 q 817 93 772 121 q 767 18 801 50 q 681 -14 733 -14 q 557 113 557 -14 q 604 458 557 174 q 658 808 651 743 q 500 864 568 864 q 350 660 372 864 q 532 667 446 660 q 538 619 538 639 q 471 533 538 538 q 338 531 407 531 q 294 122 311 265 q 287 61 289 78 q 277 3 285 44 q 263 -57 269 -39 q 242 -105 256 -75 q 211 -148 228 -135 q 170 -172 194 -161 q 115 -183 146 -183 q 44 -156 75 -183 q 0 -75 13 -129 q 132 525 94 -46 q 31 518 67 522 q 26 561 26 539 q 108 660 26 660 l 149 660 q 269 908 164 824 q 518 992 374 992 q 644 975 582 992 q 769 1031 689 1031 z "},"ﬃ":{"ha":1349,"x_min":0,"x_max":1322,"o":"m 1207 674 q 1313 549 1313 674 q 1290 351 1313 493 q 1267 176 1267 210 q 1311 93 1267 121 q 1253 13 1292 40 q 1169 -14 1215 -14 q 1051 113 1051 -14 q 1075 318 1051 178 q 1099 493 1099 458 q 1090 533 1099 514 q 849 531 1013 531 q 806 122 822 265 q 798 61 800 78 q 788 3 796 44 q 774 -57 781 -39 q 753 -105 767 -75 q 722 -148 739 -135 q 681 -172 706 -161 q 626 -183 657 -183 q 555 -156 586 -183 q 511 -75 524 -129 q 643 531 606 -46 l 338 531 q 294 122 311 265 q 287 61 289 78 q 277 3 285 44 q 263 -57 269 -39 q 242 -105 256 -75 q 211 -148 228 -135 q 170 -172 194 -161 q 115 -183 146 -183 q 44 -156 75 -183 q 0 -75 13 -129 q 132 525 94 -46 q 29 518 64 522 q 25 561 25 539 q 107 660 25 660 l 149 660 q 232 899 158 806 q 447 992 306 992 q 569 955 524 992 q 615 871 615 918 q 588 811 615 838 q 507 776 560 785 q 476 838 497 819 q 432 857 454 857 q 374 798 394 857 q 349 660 354 739 l 660 660 q 748 860 674 779 q 912 974 822 942 q 1097 1006 1001 1006 q 1322 892 1322 1006 q 1140 778 1322 783 q 1032 861 1118 861 q 917 810 968 861 q 861 660 867 758 q 1146 663 1088 660 q 1207 674 1175 674 z "},"ﬄ":{"ha":1390,"x_min":0,"x_max":1386,"o":"m 1281 1031 q 1386 906 1386 1031 q 1335 530 1386 850 q 1283 176 1283 210 q 1328 93 1283 121 q 1278 18 1313 50 q 1192 -14 1244 -14 q 1068 113 1068 -14 q 1115 455 1068 172 q 1169 808 1163 738 q 1013 864 1081 864 q 861 660 882 864 q 1043 667 957 660 q 1049 619 1049 639 q 982 533 1049 538 q 849 531 918 531 q 806 122 822 265 q 798 61 800 78 q 788 3 796 44 q 774 -57 781 -39 q 753 -105 767 -75 q 722 -148 739 -135 q 681 -172 706 -161 q 626 -183 657 -183 q 555 -156 586 -183 q 511 -75 524 -129 q 643 531 606 -46 l 338 531 q 294 122 311 265 q 287 61 289 78 q 277 3 285 44 q 263 -57 269 -39 q 242 -105 256 -75 q 211 -148 228 -135 q 170 -172 194 -161 q 115 -183 146 -183 q 44 -156 75 -183 q 0 -75 13 -129 q 132 525 94 -46 q 29 518 64 522 q 25 561 25 539 q 107 660 25 660 l 151 660 q 233 899 161 806 q 447 992 306 992 q 569 955 524 992 q 615 871 615 918 q 588 811 615 838 q 507 776 560 785 q 476 838 497 819 q 432 857 454 857 q 374 798 394 857 q 349 660 354 739 l 660 660 q 780 908 675 824 q 1029 992 885 992 q 1156 975 1093 992 q 1281 1031 1200 1031 z "},"ﬆ":{"ha":1149,"x_min":7,"x_max":1189,"o":"m 424 450 q 395 517 418 493 q 340 540 372 540 q 284 522 308 540 q 260 467 260 503 q 287 422 260 439 q 353 396 314 406 q 431 372 392 386 q 497 322 469 357 q 524 232 524 288 q 435 54 524 122 q 229 -14 347 -14 q 7 90 7 -14 q 129 219 7 169 q 170 144 138 169 q 243 119 203 119 q 313 137 285 119 q 340 192 340 154 q 313 229 340 215 q 247 253 286 243 q 170 278 208 263 q 105 330 132 293 q 78 424 78 367 q 165 601 78 529 q 365 674 253 674 q 472 657 419 674 q 471 690 471 668 q 554 853 471 790 q 747 915 638 915 q 903 874 831 915 q 978 756 976 833 q 965 658 978 728 q 1182 665 1122 658 q 1189 614 1189 640 q 1119 531 1189 536 q 944 528 1074 528 q 899 171 899 203 q 919 118 899 136 q 972 100 940 100 q 1064 143 1028 100 q 1101 67 1101 106 q 929 -14 1101 -14 q 751 33 807 -14 q 696 174 696 81 q 703 256 696 200 q 724 403 710 313 q 742 528 738 494 q 632 519 724 528 q 629 557 629 542 q 710 660 629 660 l 756 660 q 768 761 768 747 q 696 822 768 822 q 590 767 636 822 q 544 646 544 711 q 555 606 544 628 q 565 564 565 583 q 424 450 565 474 z "}}}
